<svg width="800" height="200" viewBox="0 0 800 200" xmlns="http://www.w3.org/2000/svg">
    <style>
      @keyframes float {
        0% { transform: translateY(0px); }
        50% { transform: translateY(-5px); }
        100% { transform: translateY(0px); }
      }
      @keyframes gradientShift {
        0% { background-position: 0% 50%; }
        50% { background-position: 100% 50%; }
        100% { background-position: 0% 50%; }
      }
      @keyframes pulseGlow {
        0% { filter: drop-shadow(0 0 15px rgba(255,255,255,0.1)); }
        50% { filter: drop-shadow(0 0 25px rgba(255,255,255,0.3)); }
        100% { filter: drop-shadow(0 0 15px rgba(255,255,255,0.1)); }
      }
      .animated-bg {
        animation: gradientShift 8s ease infinite;
        background-size: 200% 200% !important;
      }
      .floating-card {
        animation: float 4s ease-in-out infinite;
      }
      .pulse-glow {
        animation: pulseGlow 3s infinite;
      }
    </style>
  <defs><clipPath id="satori_bc-id"><path x="0" y="0" width="800" height="200" d="M20,0 h760 a20,20 0 0 1 20,20 v160 a20,20 0 0 1 -20,20 h-760 a20,20 0 0 1 -20,-20 v-160 a20,20 0 0 1 20,-20"/></clipPath></defs><clipPath id="satori_cp-id"><path x="0" y="0" width="800" height="200" d="M20,0 h760 a20,20 0 0 1 20,20 v160 a20,20 0 0 1 -20,20 h-760 a20,20 0 0 1 -20,-20 v-160 a20,20 0 0 1 20,-20"/></clipPath><mask id="satori_om-id"><rect x="2" y="2" width="796" height="196" fill="#fff"/><path width="800" height="200" fill="none" stroke="#000" stroke-width="4" d="M5.8580000000000005,5.8580000000000005 A20,20 0 0 1 20,0 h760 a20,20 0 0 1 20,20 v160 a20,20 0 0 1 -20,20 h-760 a20,20 0 0 1 -20,-20 v-160 A20,20 0 0 1 5.8580000000000005,5.8580000000000005"/></mask><path x="0" y="0" width="800" height="200" fill="#0A0A0A" d="M20,0 h760 a20,20 0 0 1 20,20 v160 a20,20 0 0 1 -20,20 h-760 a20,20 0 0 1 -20,-20 v-160 a20,20 0 0 1 20,-20"/><path width="800" height="200" clip-path="url(#satori_bc-id)" fill="none" stroke="#3F3F46" stroke-width="4" d="M5.8580000000000005,5.8580000000000005 A20,20 0 0 1 20,0 h760 a20,20 0 0 1 20,20 v160 a20,20 0 0 1 -20,20 h-760 a20,20 0 0 1 -20,-20 v-160 A20,20 0 0 1 5.8580000000000005,5.8580000000000005"/><mask id="satori_om-id-0"><rect x="30" y="30" width="740" height="13" fill="#fff" mask="url(#satori_om-id)"/></mask><path fill="#E4E4E7" d="M32.8 32.3L33.7 32.3L31.1 41.9L30.3 41.9L32.8 32.3ZM38.8 32.3L39.6 32.3L37.0 41.9L36.2 41.9L38.8 32.3Z M50.0 33.5L47.5 33.5L47.5 32.7L53.5 32.7L53.5 33.5L51.0 33.5L51.0 40.7L50.0 40.7L50.0 33.5ZM61.9 40.7L57.0 40.7L57.0 32.7L61.8 32.7L61.8 33.5L57.9 33.5L57.9 36.2L61.5 36.2L61.5 37.1L57.9 37.1L57.9 39.8L61.9 39.8L61.9 40.7ZM72.0 35.2L72.0 35.2L71.0 35.2Q70.9 34.7 70.7 34.4Q70.5 34.1 70.2 33.9Q69.9 33.7 69.5 33.6Q69.2 33.5 68.8 33.5L68.8 33.5Q68.0 33.5 67.5 33.8Q66.9 34.2 66.5 34.9Q66.2 35.6 66.2 36.7L66.2 36.7Q66.2 37.7 66.5 38.4Q66.9 39.1 67.5 39.5Q68.0 39.9 68.8 39.9L68.8 39.9Q69.2 39.9 69.5 39.8Q69.9 39.6 70.2 39.4Q70.5 39.2 70.7 38.9Q70.9 38.6 71.0 38.2L71.0 38.2L72.0 38.2Q71.9 38.8 71.6 39.3Q71.3 39.7 70.9 40.1Q70.4 40.4 69.9 40.6Q69.4 40.8 68.8 40.8L68.8 40.8Q67.7 40.8 66.9 40.3Q66.1 39.8 65.7 38.8Q65.2 37.9 65.2 36.7L65.2 36.7Q65.2 35.4 65.7 34.5Q66.1 33.5 66.9 33.0Q67.7 32.5 68.8 32.5L68.8 32.5Q69.4 32.5 69.9 32.7Q70.4 32.9 70.9 33.2Q71.3 33.6 71.6 34.1Q71.9 34.5 72.0 35.2ZM76.5 40.7L75.5 40.7L75.5 32.7L76.5 32.7L76.5 36.2L80.8 36.2L80.8 32.7L81.8 32.7L81.8 40.7L80.8 40.7L80.8 37.1L76.5 37.1L76.5 40.7ZM91.1 32.7L92.0 32.7L92.0 40.7L91.1 40.7L86.7 34.4L86.7 34.4L86.7 40.7L85.7 40.7L85.7 32.7L86.6 32.7L91 39.0L91.1 39.0L91.1 32.7ZM96.0 32.7L96.9 32.7L96.9 40.7L96.0 40.7L96.0 32.7ZM107.3 35.2L107.3 35.2L106.3 35.2Q106.3 34.7 106.0 34.4Q105.8 34.1 105.5 33.9Q105.2 33.7 104.9 33.6Q104.5 33.5 104.1 33.5L104.1 33.5Q103.4 33.5 102.8 33.8Q102.2 34.2 101.8 34.9Q101.5 35.6 101.5 36.7L101.5 36.7Q101.5 37.7 101.8 38.4Q102.2 39.1 102.8 39.5Q103.4 39.9 104.1 39.9L104.1 39.9Q104.5 39.9 104.9 39.8Q105.2 39.6 105.5 39.4Q105.8 39.2 106.0 38.9Q106.3 38.6 106.3 38.2L106.3 38.2L107.3 38.2Q107.2 38.8 106.9 39.3Q106.6 39.7 106.2 40.1Q105.8 40.4 105.2 40.6Q104.7 40.8 104.1 40.8L104.1 40.8Q103.1 40.8 102.3 40.3Q101.5 39.8 101.0 38.8Q100.6 37.9 100.6 36.7L100.6 36.7Q100.6 35.4 101.0 34.5Q101.5 33.5 102.3 33.0Q103.1 32.5 104.1 32.5L104.1 32.5Q104.7 32.5 105.2 32.7Q105.8 32.9 106.2 33.2Q106.6 33.6 106.9 34.1Q107.2 34.5 107.3 35.2ZM113.6 33.9L111.2 40.7L110.2 40.7L113.1 32.7L114.1 32.7L117.1 40.7L116.0 40.7L113.7 33.9L113.6 33.9ZM111.6 38.4L111.6 37.5L115.7 37.5L115.7 38.4L111.6 38.4ZM125 40.7L120.3 40.7L120.3 32.7L121.3 32.7L121.3 39.8L125 39.8L125 40.7Z M138.5 40.7L133.6 40.7L133.6 32.7L138.4 32.7L138.4 33.5L134.6 33.5L134.6 36.2L138.2 36.2L138.2 37.1L134.6 37.1L134.6 39.8L138.5 39.8L138.5 40.7ZM148.6 35.2L148.6 35.2L147.6 35.2Q147.6 34.7 147.3 34.4Q147.1 34.1 146.8 33.9Q146.5 33.7 146.2 33.6Q145.8 33.5 145.4 33.5L145.4 33.5Q144.7 33.5 144.1 33.8Q143.5 34.2 143.1 34.9Q142.8 35.6 142.8 36.7L142.8 36.7Q142.8 37.7 143.1 38.4Q143.5 39.1 144.1 39.5Q144.7 39.9 145.4 39.9L145.4 39.9Q145.8 39.9 146.2 39.8Q146.5 39.6 146.8 39.4Q147.1 39.2 147.3 38.9Q147.6 38.6 147.6 38.2L147.6 38.2L148.6 38.2Q148.5 38.8 148.2 39.3Q147.9 39.7 147.5 40.1Q147.1 40.4 146.5 40.6Q146.0 40.8 145.4 40.8L145.4 40.8Q144.4 40.8 143.6 40.3Q142.8 39.8 142.3 38.8Q141.9 37.9 141.9 36.7L141.9 36.7Q141.9 35.4 142.3 34.5Q142.8 33.5 143.6 33.0Q144.4 32.5 145.4 32.5L145.4 32.5Q146.0 32.5 146.5 32.7Q147.1 32.9 147.5 33.2Q147.9 33.6 148.2 34.1Q148.5 34.5 148.6 35.2ZM158.9 36.7L158.9 36.7Q158.9 37.9 158.5 38.8Q158.0 39.8 157.2 40.3Q156.4 40.8 155.4 40.8L155.4 40.8Q154.4 40.8 153.6 40.3Q152.8 39.8 152.3 38.8Q151.9 37.9 151.9 36.7L151.9 36.7Q151.9 35.4 152.3 34.5Q152.8 33.5 153.6 33.0Q154.4 32.5 155.4 32.5L155.4 32.5Q156.4 32.5 157.2 33.0Q158.0 33.5 158.5 34.5Q158.9 35.4 158.9 36.7ZM158.0 36.7L158.0 36.7Q158.0 35.6 157.6 34.9Q157.3 34.2 156.7 33.8Q156.1 33.5 155.4 33.5L155.4 33.5Q154.7 33.5 154.1 33.8Q153.5 34.2 153.1 34.9Q152.8 35.6 152.8 36.7L152.8 36.7Q152.8 37.7 153.1 38.4Q153.5 39.1 154.1 39.5Q154.7 39.9 155.4 39.9L155.4 39.9Q156.1 39.9 156.7 39.5Q157.3 39.1 157.6 38.4Q158.0 37.7 158.0 36.7ZM167.9 34.7L166.9 34.7Q166.9 34.1 166.4 33.7Q165.9 33.4 165.1 33.4L165.1 33.4Q164.6 33.4 164.2 33.6Q163.8 33.8 163.6 34.1Q163.4 34.4 163.4 34.7L163.4 34.7Q163.4 35.1 163.5 35.3Q163.7 35.5 163.9 35.7Q164.2 35.8 164.4 35.9Q164.7 36.0 164.9 36.1L164.9 36.1L165.7 36.3Q166.0 36.4 166.4 36.5Q166.8 36.7 167.2 36.9Q167.5 37.1 167.7 37.5Q168.0 37.9 168.0 38.5L168.0 38.5Q168.0 39.1 167.6 39.7Q167.3 40.2 166.6 40.5Q166 40.8 165.1 40.8L165.1 40.8Q164.2 40.8 163.6 40.5Q163.0 40.2 162.6 39.7Q162.3 39.3 162.2 38.6L162.2 38.6L163.2 38.6Q163.2 39.0 163.5 39.3Q163.8 39.6 164.2 39.8Q164.6 39.9 165.1 39.9L165.1 39.9Q165.6 39.9 166.1 39.7Q166.5 39.6 166.8 39.2Q167.0 38.9 167.0 38.5L167.0 38.5Q167.0 38.1 166.8 37.8Q166.6 37.6 166.2 37.4Q165.9 37.3 165.4 37.1L165.4 37.1L164.5 36.9Q163.5 36.6 163.0 36.1Q162.4 35.6 162.4 34.8L162.4 34.8Q162.4 34.1 162.8 33.6Q163.2 33.1 163.8 32.8Q164.4 32.5 165.2 32.5L165.2 32.5Q165.9 32.5 166.5 32.8Q167.1 33.1 167.5 33.6Q167.8 34.1 167.9 34.7L167.9 34.7ZM173.8 37.4L170.9 32.7L172.0 32.7L174.2 36.4L174.3 36.4L176.5 32.7L177.6 32.7L174.7 37.4L174.7 40.7L173.8 40.7L173.8 37.4ZM186.2 34.7L185.3 34.7Q185.2 34.1 184.7 33.7Q184.2 33.4 183.5 33.4L183.5 33.4Q182.9 33.4 182.5 33.6Q182.1 33.8 181.9 34.1Q181.7 34.4 181.7 34.7L181.7 34.7Q181.7 35.1 181.8 35.3Q182.0 35.5 182.2 35.7Q182.5 35.8 182.7 35.9Q183.0 36.0 183.2 36.1L183.2 36.1L184.0 36.3Q184.4 36.4 184.7 36.5Q185.1 36.7 185.5 36.9Q185.8 37.1 186.1 37.5Q186.3 37.9 186.3 38.5L186.3 38.5Q186.3 39.1 186.0 39.7Q185.6 40.2 185.0 40.5Q184.3 40.8 183.4 40.8L183.4 40.8Q182.5 40.8 181.9 40.5Q181.3 40.2 180.9 39.7Q180.6 39.3 180.5 38.6L180.5 38.6L181.5 38.6Q181.6 39.0 181.8 39.3Q182.1 39.6 182.5 39.8Q182.9 39.9 183.4 39.9L183.4 39.9Q184.0 39.9 184.4 39.7Q184.8 39.6 185.1 39.2Q185.4 38.9 185.4 38.5L185.4 38.5Q185.4 38.1 185.1 37.8Q184.9 37.6 184.6 37.4Q184.2 37.3 183.8 37.1L183.8 37.1L182.8 36.9Q181.8 36.6 181.3 36.1Q180.8 35.6 180.8 34.8L180.8 34.8Q180.8 34.1 181.1 33.6Q181.5 33.1 182.1 32.8Q182.7 32.5 183.5 32.5L183.5 32.5Q184.3 32.5 184.9 32.8Q185.5 33.1 185.8 33.6Q186.2 34.1 186.2 34.7L186.2 34.7ZM192.0 33.5L189.5 33.5L189.5 32.7L195.5 32.7L195.5 33.5L192.9 33.5L192.9 40.7L192.0 40.7L192.0 33.5ZM203.8 40.7L199.0 40.7L199.0 32.7L203.8 32.7L203.8 33.5L199.9 33.5L199.9 36.2L203.5 36.2L203.5 37.1L199.9 37.1L199.9 39.8L203.8 39.8L203.8 40.7ZM207.5 40.7L207.5 32.7L208.7 32.7L211.4 39.3L211.5 39.3L214.2 32.7L215.4 32.7L215.4 40.7L214.5 40.7L214.5 34.6L214.4 34.6L211.9 40.7L211.0 40.7L208.5 34.6L208.4 34.6L208.4 40.7L207.5 40.7Z M226.5 40.8L226.5 40.8Q225.8 40.8 225.2 40.5Q224.6 40.2 224.3 39.7Q224 39.2 224 38.5L224 38.5Q224 38.0 224.2 37.6Q224.4 37.3 224.8 36.9Q225.2 36.6 225.7 36.3L225.7 36.3L226.8 35.4Q227.2 35.2 227.4 34.9Q227.6 34.7 227.6 34.3L227.6 34.3Q227.6 33.9 227.3 33.7Q227.0 33.4 226.6 33.4L226.6 33.4Q226.3 33.4 226.1 33.5Q225.8 33.7 225.7 33.9Q225.6 34.2 225.6 34.4L225.6 34.4Q225.6 34.7 225.7 35.0Q225.9 35.3 226.1 35.6Q226.4 35.9 226.6 36.2L226.6 36.2L230.3 40.7L229.2 40.7L226.2 37Q225.7 36.5 225.4 36.1Q225.0 35.7 224.8 35.3Q224.6 34.9 224.6 34.4L224.6 34.4Q224.6 33.9 224.9 33.4Q225.1 33.0 225.6 32.8Q226.0 32.6 226.6 32.6L226.6 32.6Q227.2 32.6 227.6 32.8Q228.0 33.0 228.3 33.4Q228.5 33.8 228.5 34.3L228.5 34.3Q228.5 34.8 228.2 35.2Q227.9 35.7 227.5 36.0L227.5 36.0L225.9 37.2Q225.3 37.6 225.1 38.0Q224.9 38.4 224.9 38.5L224.9 38.5Q224.9 38.9 225.1 39.2Q225.3 39.6 225.7 39.8Q226.0 40.0 226.5 40.0L226.5 40.0Q227.0 40.0 227.4 39.8Q227.8 39.6 228.2 39.2Q228.5 38.8 228.7 38.3Q228.9 37.8 228.9 37.2L228.9 37.2L229.8 37.2Q229.8 38.0 229.6 38.5Q229.5 39.0 229.2 39.2Q229 39.5 228.9 39.7L228.9 39.7Q228.8 39.7 228.8 39.8Q228.7 39.8 228.7 39.9L228.7 39.9Q228.3 40.3 227.7 40.6Q227.1 40.8 226.5 40.8Z M243.8 34.7L242.9 34.7Q242.8 34.1 242.3 33.7Q241.8 33.4 241.1 33.4L241.1 33.4Q240.6 33.4 240.2 33.6Q239.8 33.8 239.6 34.1Q239.3 34.4 239.3 34.7L239.3 34.7Q239.3 35.1 239.5 35.3Q239.7 35.5 239.9 35.7Q240.1 35.8 240.4 35.9Q240.7 36.0 240.9 36.1L240.9 36.1L241.7 36.3Q242.0 36.4 242.4 36.5Q242.8 36.7 243.1 36.9Q243.5 37.1 243.7 37.5Q244.0 37.9 244.0 38.5L244.0 38.5Q244.0 39.1 243.6 39.7Q243.3 40.2 242.6 40.5Q242.0 40.8 241.1 40.8L241.1 40.8Q240.2 40.8 239.6 40.5Q238.9 40.2 238.6 39.7Q238.2 39.3 238.2 38.6L238.2 38.6L239.2 38.6Q239.2 39.0 239.5 39.3Q239.8 39.6 240.2 39.8Q240.6 39.9 241.1 39.9L241.1 39.9Q241.6 39.9 242.1 39.7Q242.5 39.6 242.8 39.2Q243.0 38.9 243.0 38.5L243.0 38.5Q243.0 38.1 242.8 37.8Q242.6 37.6 242.2 37.4Q241.8 37.3 241.4 37.1L241.4 37.1L240.4 36.9Q239.5 36.6 239.0 36.1Q238.4 35.6 238.4 34.8L238.4 34.8Q238.4 34.1 238.8 33.6Q239.1 33.1 239.8 32.8Q240.4 32.5 241.1 32.5L241.1 32.5Q241.9 32.5 242.5 32.8Q243.1 33.1 243.5 33.6Q243.8 34.1 243.8 34.7L243.8 34.7ZM249.6 33.5L247.1 33.5L247.1 32.7L253.1 32.7L253.1 33.5L250.6 33.5L250.6 40.7L249.6 40.7L249.6 33.5ZM258.4 33.9L256 40.7L255.0 40.7L257.9 32.7L258.9 32.7L261.9 40.7L260.8 40.7L258.5 33.9L258.4 33.9ZM256.4 38.4L256.4 37.5L260.5 37.5L260.5 38.4L256.4 38.4ZM271.2 35.2L271.2 35.2L270.2 35.2Q270.1 34.7 269.9 34.4Q269.7 34.1 269.4 33.9Q269.1 33.7 268.7 33.6Q268.4 33.5 268.0 33.5L268.0 33.5Q267.2 33.5 266.6 33.8Q266.1 34.2 265.7 34.9Q265.4 35.6 265.4 36.7L265.4 36.7Q265.4 37.7 265.7 38.4Q266.1 39.1 266.6 39.5Q267.2 39.9 268.0 39.9L268.0 39.9Q268.4 39.9 268.7 39.8Q269.1 39.6 269.4 39.4Q269.7 39.2 269.9 38.9Q270.1 38.6 270.2 38.2L270.2 38.2L271.2 38.2Q271.1 38.8 270.8 39.3Q270.5 39.7 270.1 40.1Q269.6 40.4 269.1 40.6Q268.6 40.8 268.0 40.8L268.0 40.8Q266.9 40.8 266.1 40.3Q265.3 39.8 264.9 38.8Q264.4 37.9 264.4 36.7L264.4 36.7Q264.4 35.4 264.9 34.5Q265.3 33.5 266.1 33.0Q266.9 32.5 268.0 32.5L268.0 32.5Q268.6 32.5 269.1 32.7Q269.6 32.9 270.1 33.2Q270.5 33.6 270.8 34.1Q271.1 34.5 271.2 35.2ZM275.7 40.7L274.7 40.7L274.7 32.7L275.7 32.7L275.7 36.6L275.8 36.6L279.4 32.7L280.7 32.7L277.3 36.3L280.7 40.7L279.5 40.7L276.7 36.9L275.7 38.1L275.7 40.7Z M290.3 40.7L290.3 32.7L291.5 32.7L294.2 39.3L294.3 39.3L297 32.7L298.2 32.7L298.2 40.7L297.3 40.7L297.3 34.6L297.2 34.6L294.7 40.7L293.8 40.7L291.3 34.6L291.2 34.6L291.2 40.7L290.3 40.7ZM304.8 33.9L302.4 40.7L301.4 40.7L304.3 32.7L305.3 32.7L308.3 40.7L307.3 40.7L304.9 33.9L304.8 33.9ZM302.8 38.4L302.8 37.5L306.9 37.5L306.9 38.4L302.8 38.4ZM312.7 33.5L310.2 33.5L310.2 32.7L316.2 32.7L316.2 33.5L313.6 33.5L313.6 40.7L312.7 40.7L312.7 33.5ZM320.6 40.7L319.7 40.7L319.7 32.7L322.4 32.7Q323.3 32.7 323.9 33.0Q324.5 33.3 324.8 33.8Q325.1 34.4 325.1 35.1L325.1 35.1Q325.1 35.8 324.8 36.4Q324.5 36.9 323.9 37.2Q323.3 37.5 322.4 37.5L322.4 37.5L320.2 37.5L320.2 36.7L322.3 36.7Q323.0 36.7 323.4 36.5Q323.8 36.3 323.9 35.9Q324.1 35.6 324.1 35.1L324.1 35.1Q324.1 34.6 323.9 34.3Q323.8 33.9 323.4 33.7Q323.0 33.5 322.3 33.5L322.3 33.5L320.6 33.5L320.6 40.7ZM322.3 37.1L323.4 37.1L325.4 40.7L324.3 40.7L322.3 37.1ZM328.7 32.7L329.7 32.7L329.7 40.7L328.7 40.7L328.7 32.7ZM332.9 32.7L334.1 32.7L336.1 36.0L336.2 36.0L338.3 32.7L339.4 32.7L336.9 36.7L339.4 40.7L338.3 40.7L336.2 37.4L336.1 37.4L334.1 40.7L332.9 40.7L335.5 36.7L332.9 32.7Z " clip-path="url(#satori_cp-id)" mask="url(#satori_om-id)"/><mask id="satori_om-id-1"><rect x="30" y="63" width="740" height="104" fill="#fff" mask="url(#satori_om-id)"/></mask><mask id="satori_om-id-1-0"><rect x="30" y="63" width="354" height="104" fill="#fff" mask="url(#satori_om-id)"/></mask><defs><clipPath id="satori_bc-id-1-0-0" clip-path="url(#satori_cp-id)"><path x="30" y="63" width="354" height="84" d="M42,63 h330 a12,12 0 0 1 12,12 v60 a12,12 0 0 1 -12,12 h-330 a12,12 0 0 1 -12,-12 v-60 a12,12 0 0 1 12,-12"/></clipPath></defs><mask id="satori_om-id-1-0-0"><rect x="31" y="65" width="352" height="81" fill="#fff" mask="url(#satori_om-id)"/><path width="354" height="84" fill="none" stroke="#000" stroke-width="4" d="M33.515,66.515 A12,12 0 0 1 42,63 h330 A12,12 0 0 1 380.485,66.515"/><path width="354" height="84" fill="none" stroke="#000" stroke-width="2" d="M380.485,66.515 A12,12 0 0 1 384,75 v60 a12,12 0 0 1 -12,12 h-330 a12,12 0 0 1 -12,-12 v-60 A12,12 0 0 1 33.515,66.515"/></mask><path x="30" y="63" width="354" height="84" fill="#1F1F1FEE" d="M42,63 h330 a12,12 0 0 1 12,12 v60 a12,12 0 0 1 -12,12 h-330 a12,12 0 0 1 -12,-12 v-60 a12,12 0 0 1 12,-12" clip-path="url(#satori_cp-id)" mask="url(#satori_om-id)"/><path width="354" height="84" clip-path="url(#satori_bc-id-1-0-0)" fill="none" stroke="#E4E4E7" stroke-width="4" d="M33.515,66.515 A12,12 0 0 1 42,63 h330 A12,12 0 0 1 380.485,66.515"/><path width="354" height="84" clip-path="url(#satori_bc-id-1-0-0)" fill="none" stroke="#3F3F46" stroke-width="2" d="M380.485,66.515 A12,12 0 0 1 384,75 v60 a12,12 0 0 1 -12,12 h-330 a12,12 0 0 1 -12,-12 v-60 A12,12 0 0 1 33.515,66.515"/><mask id="satori_om-id-1-0-0-0"><rect x="47" y="79" width="320" height="11" fill="#fff" mask="url(#satori_om-id)"/></mask><path fill="#71717A" d="M51.6 87.7L47.8 87.7L47.8 81.2L48.6 81.2L48.6 87.0L51.6 87.0L51.6 87.7ZM56.5 82.2L54.5 87.7L53.7 87.7L56.1 81.2L56.9 81.2L59.3 87.7L58.5 87.7L56.5 82.2L56.5 82.2ZM54.8 85.9L54.8 85.2L58.2 85.2L58.2 85.9L54.8 85.9ZM65.8 81.2L66.5 81.2L66.5 87.7L65.8 87.7L62.2 82.6L62.1 82.6L62.1 87.7L61.3 87.7L61.3 81.2L62.1 81.2L65.7 86.3L65.8 86.3L65.8 81.2ZM74.4 83.2L73.6 83.2Q73.5 82.9 73.3 82.6Q73.2 82.4 72.9 82.2Q72.7 82.0 72.4 81.9Q72.1 81.8 71.7 81.8L71.7 81.8Q71.2 81.8 70.7 82.1Q70.2 82.4 69.9 83.0Q69.6 83.6 69.6 84.4L69.6 84.4Q69.6 85.3 69.9 85.9Q70.2 86.5 70.7 86.8Q71.2 87.1 71.8 87.1L71.8 87.1Q72.3 87.1 72.8 86.8Q73.2 86.6 73.4 86.1Q73.7 85.7 73.7 85.1L73.7 85.1L73.9 85.1L72.0 85.1L72.0 84.4L74.5 84.4L74.5 85.1Q74.5 86.0 74.1 86.6Q73.8 87.2 73.2 87.5Q72.6 87.8 71.8 87.8L71.8 87.8Q70.9 87.8 70.3 87.4Q69.6 87.0 69.2 86.2Q68.9 85.5 68.9 84.4L68.9 84.4Q68.9 83.7 69.1 83.0Q69.3 82.4 69.7 82.0Q70.1 81.6 70.6 81.3Q71.1 81.1 71.7 81.1L71.7 81.1Q72.3 81.1 72.7 81.2Q73.1 81.4 73.5 81.7Q73.9 82.0 74.1 82.4Q74.3 82.7 74.4 83.2L74.4 83.2ZM81.1 85.4L81.1 81.2L81.9 81.2L81.9 85.5Q81.9 86.2 81.6 86.7Q81.3 87.2 80.7 87.5Q80.1 87.8 79.4 87.8L79.4 87.8Q78.6 87.8 78.0 87.5Q77.4 87.2 77.1 86.7Q76.8 86.2 76.8 85.5L76.8 85.5L76.8 81.2L77.6 81.2L77.6 85.4Q77.6 85.9 77.8 86.3Q78.0 86.7 78.4 86.9Q78.8 87.1 79.4 87.1L79.4 87.1Q79.9 87.1 80.3 86.9Q80.7 86.7 80.9 86.3Q81.1 85.9 81.1 85.4L81.1 85.4ZM86.7 82.2L84.8 87.7L83.9 87.7L86.3 81.2L87.1 81.2L89.5 87.7L88.7 87.7L86.8 82.2L86.7 82.2ZM85.1 85.9L85.1 85.2L88.4 85.2L88.4 85.9L85.1 85.9ZM96.6 83.2L95.7 83.2Q95.6 82.9 95.5 82.6Q95.3 82.4 95.1 82.2Q94.8 82.0 94.5 81.9Q94.2 81.8 93.9 81.8L93.9 81.8Q93.3 81.8 92.8 82.1Q92.3 82.4 92.1 83.0Q91.8 83.6 91.8 84.4L91.8 84.4Q91.8 85.3 92.1 85.9Q92.3 86.5 92.8 86.8Q93.3 87.1 93.9 87.1L93.9 87.1Q94.5 87.1 94.9 86.8Q95.3 86.6 95.6 86.1Q95.8 85.7 95.8 85.1L95.8 85.1L96.1 85.1L94.1 85.1L94.1 84.4L96.6 84.4L96.6 85.1Q96.6 86.0 96.3 86.6Q95.9 87.2 95.3 87.5Q94.7 87.8 93.9 87.8L93.9 87.8Q93.1 87.8 92.4 87.4Q91.7 87.0 91.4 86.2Q91.0 85.5 91.0 84.4L91.0 84.4Q91.0 83.7 91.2 83.0Q91.4 82.4 91.8 82.0Q92.2 81.6 92.7 81.3Q93.2 81.1 93.9 81.1L93.9 81.1Q94.4 81.1 94.8 81.2Q95.3 81.4 95.6 81.7Q96.0 82.0 96.2 82.4Q96.5 82.7 96.6 83.2L96.6 83.2ZM103.0 87.7L98.9 87.7L98.9 81.2L102.9 81.2L102.9 81.9L99.7 81.9L99.7 84.1L102.7 84.1L102.7 84.8L99.7 84.8L99.7 87.0L103.0 87.0L103.0 87.7ZM109.7 82.8L108.9 82.8Q108.9 82.3 108.4 82.1Q108.0 81.8 107.4 81.8L107.4 81.8Q107.0 81.8 106.7 81.9Q106.4 82.1 106.2 82.3Q106.0 82.6 106.0 82.9L106.0 82.9Q106.0 83.1 106.1 83.3Q106.2 83.5 106.4 83.6Q106.6 83.8 106.9 83.8Q107.1 83.9 107.3 84.0L107.3 84.0L107.9 84.1Q108.2 84.2 108.5 84.3Q108.8 84.4 109.1 84.6Q109.4 84.8 109.6 85.2Q109.8 85.5 109.8 85.9L109.8 85.9Q109.8 86.5 109.5 86.9Q109.2 87.3 108.7 87.6Q108.2 87.8 107.4 87.8L107.4 87.8Q106.7 87.8 106.2 87.6Q105.7 87.4 105.4 87.0Q105.1 86.6 105.0 86.0L105.0 86.0L105.9 86.0Q105.9 86.4 106.1 86.6Q106.3 86.9 106.7 87.0Q107.0 87.1 107.4 87.1L107.4 87.1Q107.9 87.1 108.2 87.0Q108.6 86.8 108.8 86.6Q109.0 86.3 109.0 85.9L109.0 85.9Q109.0 85.6 108.8 85.4Q108.6 85.2 108.3 85.1Q108.0 84.9 107.7 84.8L107.7 84.8L106.9 84.6Q106.1 84.4 105.7 84.0Q105.2 83.6 105.2 82.9L105.2 82.9Q105.2 82.4 105.5 82.0Q105.8 81.5 106.3 81.3Q106.8 81.1 107.5 81.1L107.5 81.1Q108.1 81.1 108.6 81.3Q109.1 81.5 109.4 81.9Q109.7 82.3 109.7 82.8L109.7 82.8Z " clip-path="url(#satori_cp-id)" mask="url(#satori_om-id)"/><mask id="satori_om-id-1-0-0-1"><rect x="47" y="104" width="320" height="28" fill="#fff" mask="url(#satori_om-id)"/></mask><defs><clipPath id="satori_bc-id-1-0-0-1-0" clip-path="url(#satori_cp-id)"><path x="47" y="104" width="86" height="28" d="M53,104 h74 a6,6 0 0 1 6,6 v16 a6,6 0 0 1 -6,6 h-74 a6,6 0 0 1 -6,-6 v-16 a6,6 0 0 1 6,-6"/></clipPath></defs><mask id="satori_om-id-1-0-0-1-0"><rect x="48" y="105" width="84" height="26" fill="#fff" mask="url(#satori_om-id)"/><path width="86" height="28" fill="none" stroke="#000" stroke-width="2" d="M48.757,105.757 A6,6 0 0 1 53,104 h74 a6,6 0 0 1 6,6 v16 a6,6 0 0 1 -6,6 h-74 a6,6 0 0 1 -6,-6 v-16 A6,6 0 0 1 48.757,105.757"/></mask><path x="47" y="104" width="86" height="28" fill="#E4E4E718" d="M53,104 h74 a6,6 0 0 1 6,6 v16 a6,6 0 0 1 -6,6 h-74 a6,6 0 0 1 -6,-6 v-16 a6,6 0 0 1 6,-6" clip-path="url(#satori_cp-id)" mask="url(#satori_om-id)"/><path width="86" height="28" clip-path="url(#satori_bc-id-1-0-0-1-0)" fill="none" stroke="#E4E4E740" stroke-width="2" d="M48.757,105.757 A6,6 0 0 1 53,104 h74 a6,6 0 0 1 6,6 v16 a6,6 0 0 1 -6,6 h-74 a6,6 0 0 1 -6,-6 v-16 A6,6 0 0 1 48.757,105.757"/><path fill="#FFFFFF" d="M63.0 114.5L60.5 114.5L60.5 113.7L66.5 113.7L66.5 114.5L64.0 114.5L64.0 121.7L63.0 121.7L63.0 114.5ZM68.1 123.9L68.1 123.9Q67.9 123.9 67.7 123.9Q67.5 123.8 67.4 123.8L67.4 123.8L67.7 123.0Q68.0 123.1 68.3 123.0Q68.5 123.0 68.7 122.8Q68.9 122.6 69.1 122.2L69.1 122.2L69.3 121.7L67.0 115.7L68.0 115.7L69.7 120.4L69.8 120.4L71.4 115.7L72.4 115.7L69.9 122.5Q69.7 123.0 69.5 123.3Q69.2 123.6 68.9 123.8Q68.5 123.9 68.1 123.9ZM74.9 123.9L73.9 123.9L73.9 115.7L74.8 115.7L74.8 116.6L74.9 116.6Q75.0 116.5 75.2 116.2Q75.4 116.0 75.8 115.8Q76.1 115.6 76.7 115.6L76.7 115.6Q77.4 115.6 78.0 116.0Q78.6 116.3 78.9 117.0Q79.2 117.7 79.2 118.7L79.2 118.7Q79.2 119.6 78.9 120.3Q78.6 121.0 78.0 121.4Q77.4 121.8 76.7 121.8L76.7 121.8Q76.1 121.8 75.8 121.6Q75.4 121.4 75.2 121.1Q75.0 120.9 74.9 120.7L74.9 120.7L74.9 120.7L74.9 123.9ZM74.8 118.7L74.8 118.7Q74.8 119.3 75.0 119.9Q75.2 120.4 75.6 120.7Q76.0 121.0 76.6 121.0L76.6 121.0Q77.1 121.0 77.5 120.6Q77.9 120.3 78.1 119.8Q78.3 119.3 78.3 118.7L78.3 118.7Q78.3 118.0 78.1 117.5Q77.9 117.0 77.5 116.7Q77.2 116.4 76.6 116.4L76.6 116.4Q76.0 116.4 75.6 116.7Q75.2 117.0 75.0 117.5Q74.8 118.0 74.8 118.7ZM83.5 121.8L83.5 121.8Q82.6 121.8 82.0 121.4Q81.3 121.0 81.0 120.3Q80.7 119.6 80.7 118.7L80.7 118.7Q80.7 117.8 81.0 117.1Q81.3 116.4 81.9 116.0Q82.6 115.6 83.4 115.6L83.4 115.6Q83.8 115.6 84.3 115.7Q84.8 115.9 85.1 116.2Q85.5 116.6 85.7 117.2Q85.9 117.7 85.9 118.6L85.9 118.6L85.9 119.0L81.3 119.0L81.3 118.2L85.0 118.2Q85.0 117.7 84.8 117.3Q84.6 116.9 84.2 116.6Q83.9 116.4 83.4 116.4L83.4 116.4Q82.8 116.4 82.4 116.7Q82.0 116.9 81.8 117.4Q81.6 117.8 81.6 118.3L81.6 118.3L81.6 118.8Q81.6 119.5 81.8 120.0Q82.1 120.5 82.5 120.7Q82.9 121.0 83.5 121.0L83.5 121.0Q83.8 121.0 84.1 120.8Q84.4 120.7 84.6 120.5Q84.8 120.3 85.0 120.0L85.0 120.0L85.9 120.3Q85.7 120.7 85.4 121.1Q85.0 121.4 84.6 121.6Q84.1 121.8 83.5 121.8ZM93.1 115.7L92.2 115.7Q92.1 115.1 91.6 114.7Q91.1 114.4 90.4 114.4L90.4 114.4Q89.8 114.4 89.4 114.6Q89.0 114.8 88.8 115.1Q88.6 115.4 88.6 115.7L88.6 115.7Q88.6 116.1 88.7 116.3Q88.9 116.5 89.1 116.7Q89.4 116.8 89.6 116.9Q89.9 117.0 90.1 117.1L90.1 117.1L90.9 117.3Q91.3 117.4 91.6 117.5Q92.0 117.7 92.4 117.9Q92.7 118.1 93.0 118.5Q93.2 118.9 93.2 119.5L93.2 119.5Q93.2 120.1 92.9 120.7Q92.5 121.2 91.9 121.5Q91.2 121.8 90.3 121.8L90.3 121.8Q89.4 121.8 88.8 121.5Q88.2 121.2 87.8 120.7Q87.5 120.3 87.4 119.6L87.4 119.6L88.4 119.6Q88.5 120.0 88.7 120.3Q89.0 120.6 89.4 120.8Q89.8 120.9 90.3 120.9L90.3 120.9Q90.9 120.9 91.3 120.7Q91.7 120.6 92.0 120.2Q92.3 119.9 92.3 119.5L92.3 119.5Q92.3 119.1 92.0 118.8Q91.8 118.6 91.5 118.4Q91.1 118.3 90.7 118.1L90.7 118.1L89.7 117.9Q88.7 117.6 88.2 117.1Q87.7 116.6 87.7 115.8L87.7 115.8Q87.7 115.1 88.0 114.6Q88.4 114.1 89.0 113.8Q89.6 113.5 90.4 113.5L90.4 113.5Q91.2 113.5 91.8 113.8Q92.4 114.1 92.7 114.6Q93.1 115.1 93.1 115.7L93.1 115.7ZM97.4 121.8L97.4 121.8Q96.6 121.8 96.0 121.4Q95.3 121.0 95.0 120.3Q94.7 119.6 94.7 118.7L94.7 118.7Q94.7 117.8 95.0 117.1Q95.4 116.4 96.0 116.0Q96.6 115.6 97.4 115.6L97.4 115.6Q98.0 115.6 98.5 115.8Q99.0 116.0 99.4 116.5Q99.7 116.9 99.8 117.5L99.8 117.5L98.8 117.5Q98.7 117.0 98.4 116.7Q98.0 116.4 97.4 116.4L97.4 116.4Q96.9 116.4 96.5 116.7Q96.1 117.0 95.8 117.5Q95.6 118.0 95.6 118.7L95.6 118.7Q95.6 119.4 95.8 119.9Q96.1 120.4 96.5 120.7Q96.9 121.0 97.4 121.0L97.4 121.0Q97.8 121.0 98.1 120.8Q98.4 120.7 98.6 120.5Q98.8 120.2 98.8 119.9L98.8 119.9L99.8 119.9Q99.7 120.4 99.4 120.9Q99.1 121.3 98.6 121.5Q98.1 121.8 97.4 121.8ZM102.3 121.7L101.4 121.7L101.4 115.7L102.3 115.7L102.3 116.6L102.4 116.6Q102.5 116.1 103.0 115.8Q103.4 115.6 103.9 115.6L103.9 115.6Q104.0 115.6 104.2 115.6Q104.3 115.6 104.4 115.6L104.4 115.6L104.4 116.5Q104.4 116.5 104.2 116.5Q104.0 116.5 103.8 116.5L103.8 116.5Q103.4 116.5 103.1 116.6Q102.7 116.8 102.5 117.1Q102.3 117.5 102.3 117.9L102.3 117.9L102.3 121.7ZM106.7 121.7L105.8 121.7L105.8 115.7L106.7 115.7L106.7 121.7ZM106.3 114.7L106.3 114.7Q106.0 114.7 105.8 114.5Q105.6 114.3 105.6 114.0L105.6 114.0Q105.6 113.8 105.8 113.6Q106.0 113.4 106.3 113.4L106.3 113.4Q106.5 113.4 106.7 113.6Q106.9 113.8 106.9 114.0L106.9 114.0Q106.9 114.3 106.7 114.5Q106.5 114.7 106.3 114.7ZM109.6 123.9L108.7 123.9L108.7 115.7L109.6 115.7L109.6 116.6L109.7 116.6Q109.8 116.5 110.0 116.2Q110.2 116.0 110.5 115.8Q110.9 115.6 111.4 115.6L111.4 115.6Q112.2 115.6 112.8 116.0Q113.4 116.3 113.7 117.0Q114.0 117.7 114.0 118.7L114.0 118.7Q114.0 119.6 113.7 120.3Q113.4 121.0 112.8 121.4Q112.2 121.8 111.5 121.8L111.5 121.8Q110.9 121.8 110.5 121.6Q110.2 121.4 110.0 121.1Q109.8 120.9 109.7 120.7L109.7 120.7L109.6 120.7L109.6 123.9ZM109.6 118.7L109.6 118.7Q109.6 119.3 109.8 119.9Q110.0 120.4 110.4 120.7Q110.8 121.0 111.3 121.0L111.3 121.0Q111.9 121.0 112.3 120.6Q112.7 120.3 112.9 119.8Q113.1 119.3 113.1 118.7L113.1 118.7Q113.1 118.0 112.9 117.5Q112.7 117.0 112.3 116.7Q111.9 116.4 111.3 116.4L111.3 116.4Q110.8 116.4 110.4 116.7Q110.0 117.0 109.8 117.5Q109.6 118.0 109.6 118.7ZM115.2 115.7L118.3 115.7L118.3 116.4L115.2 116.4L115.2 115.7ZM116.1 120.2L116.1 114.2L117.0 114.2L117.0 119.9Q117.0 120.3 117.2 120.5Q117.3 120.7 117.5 120.8Q117.6 120.8 117.8 120.8L117.8 120.8Q118.0 120.8 118.1 120.8Q118.2 120.8 118.2 120.8L118.2 120.8L118.4 121.6Q118.3 121.7 118.2 121.7Q118.0 121.7 117.7 121.7L117.7 121.7Q117.4 121.7 117.0 121.6Q116.6 121.4 116.4 121.1Q116.1 120.7 116.1 120.2L116.1 120.2Z " clip-path="url(#satori_cp-id)" mask="url(#satori_om-id)"/><defs><clipPath id="satori_bc-id-1-0-0-1-1" clip-path="url(#satori_cp-id)"><path x="141" y="104" width="85" height="28" d="M147,104 h73 a6,6 0 0 1 6,6 v16 a6,6 0 0 1 -6,6 h-73 a6,6 0 0 1 -6,-6 v-16 a6,6 0 0 1 6,-6"/></clipPath></defs><mask id="satori_om-id-1-0-0-1-1"><rect x="142" y="105" width="83" height="26" fill="#fff" mask="url(#satori_om-id)"/><path width="85" height="28" fill="none" stroke="#000" stroke-width="2" d="M142.757,105.757 A6,6 0 0 1 147,104 h73 a6,6 0 0 1 6,6 v16 a6,6 0 0 1 -6,6 h-73 a6,6 0 0 1 -6,-6 v-16 A6,6 0 0 1 142.757,105.757"/></mask><path x="141" y="104" width="85" height="28" fill="#E4E4E718" d="M147,104 h73 a6,6 0 0 1 6,6 v16 a6,6 0 0 1 -6,6 h-73 a6,6 0 0 1 -6,-6 v-16 a6,6 0 0 1 6,-6" clip-path="url(#satori_cp-id)" mask="url(#satori_om-id)"/><path width="85" height="28" clip-path="url(#satori_bc-id-1-0-0-1-1)" fill="none" stroke="#E4E4E740" stroke-width="2" d="M142.757,105.757 A6,6 0 0 1 147,104 h73 a6,6 0 0 1 6,6 v16 a6,6 0 0 1 -6,6 h-73 a6,6 0 0 1 -6,-6 v-16 A6,6 0 0 1 142.757,105.757"/><path fill="#FFFFFF" d="M158.0 119.4L158.0 113.7L159 113.7L159 119.4Q159 120.1 158.7 120.7Q158.4 121.2 157.9 121.5Q157.4 121.8 156.7 121.8L156.7 121.8Q156.1 121.8 155.6 121.5Q155.0 121.3 154.7 120.8Q154.5 120.4 154.5 119.8L154.5 119.8L155.4 119.8Q155.4 120.1 155.6 120.4Q155.7 120.6 156.0 120.8Q156.3 120.9 156.7 120.9L156.7 120.9Q157.1 120.9 157.4 120.7Q157.7 120.6 157.9 120.2Q158.0 119.9 158.0 119.4L158.0 119.4ZM162.9 121.8L162.9 121.8Q162.3 121.8 161.8 121.6Q161.4 121.4 161.1 121.0Q160.8 120.5 160.8 120.0L160.8 120.0Q160.8 119.4 161.0 119.1Q161.2 118.8 161.6 118.6Q161.9 118.4 162.3 118.3Q162.7 118.2 163.2 118.2L163.2 118.2Q163.7 118.1 164.0 118.1Q164.4 118.0 164.5 118.0Q164.7 117.9 164.7 117.6L164.7 117.6L164.7 117.6Q164.7 117.0 164.4 116.7Q164.1 116.4 163.4 116.4L163.4 116.4Q162.8 116.4 162.4 116.7Q162.0 117.0 161.9 117.3L161.9 117.3L161.0 117.0Q161.2 116.4 161.6 116.1Q162.0 115.8 162.5 115.7Q163.0 115.6 163.4 115.6L163.4 115.6Q163.7 115.6 164.1 115.6Q164.5 115.7 164.8 115.9Q165.2 116.1 165.4 116.6Q165.6 117.0 165.6 117.7L165.6 117.7L165.6 121.7L164.7 121.7L164.7 120.8L164.7 120.8Q164.6 121.0 164.3 121.3Q164.1 121.5 163.8 121.6Q163.4 121.8 162.9 121.8ZM163.0 121.0L163.0 121.0Q163.6 121.0 163.9 120.8Q164.3 120.5 164.5 120.2Q164.7 119.9 164.7 119.5L164.7 119.5L164.7 118.6Q164.6 118.7 164.5 118.8Q164.3 118.8 164.0 118.9Q163.7 118.9 163.5 118.9Q163.3 119.0 163.1 119.0L163.1 119.0Q162.8 119.0 162.4 119.1Q162.1 119.2 161.9 119.4Q161.8 119.6 161.8 120L161.8 120Q161.8 120.5 162.1 120.7Q162.5 121.0 163.0 121.0ZM171.3 115.7L172.3 115.7L170.1 121.7L169.1 121.7L166.9 115.7L167.9 115.7L169.6 120.4L169.6 120.4L171.3 115.7ZM175.4 121.8L175.4 121.8Q174.8 121.8 174.4 121.6Q173.9 121.4 173.6 121.0Q173.4 120.5 173.4 120.0L173.4 120.0Q173.4 119.4 173.6 119.1Q173.8 118.8 174.1 118.6Q174.4 118.4 174.9 118.3Q175.3 118.2 175.7 118.2L175.7 118.2Q176.2 118.1 176.6 118.1Q176.9 118.0 177.1 118.0Q177.2 117.9 177.2 117.6L177.2 117.6L177.2 117.6Q177.2 117.0 176.9 116.7Q176.6 116.4 176.0 116.4L176.0 116.4Q175.3 116.4 174.9 116.7Q174.6 117.0 174.4 117.3L174.4 117.3L173.5 117.0Q173.8 116.4 174.2 116.1Q174.5 115.8 175.0 115.7Q175.5 115.6 175.9 115.6L175.9 115.6Q176.2 115.6 176.6 115.6Q177.0 115.7 177.3 115.9Q177.7 116.1 177.9 116.6Q178.2 117.0 178.2 117.7L178.2 117.7L178.2 121.7L177.2 121.7L177.2 120.8L177.2 120.8Q177.1 121.0 176.9 121.3Q176.7 121.5 176.3 121.6Q175.9 121.8 175.4 121.8ZM175.5 121.0L175.5 121.0Q176.1 121.0 176.5 120.8Q176.8 120.5 177.0 120.2Q177.2 119.9 177.2 119.5L177.2 119.5L177.2 118.6Q177.2 118.7 177.0 118.8Q176.8 118.8 176.5 118.9Q176.3 118.9 176.0 118.9Q175.8 119.0 175.6 119.0L175.6 119.0Q175.3 119.0 175.0 119.1Q174.7 119.2 174.5 119.4Q174.3 119.6 174.3 120L174.3 120Q174.3 120.5 174.6 120.7Q175.0 121.0 175.5 121.0ZM185.6 115.7L184.6 115.7Q184.6 115.1 184.1 114.7Q183.6 114.4 182.8 114.4L182.8 114.4Q182.3 114.4 181.9 114.6Q181.5 114.8 181.3 115.1Q181.1 115.4 181.1 115.7L181.1 115.7Q181.1 116.1 181.2 116.3Q181.4 116.5 181.6 116.7Q181.9 116.8 182.1 116.9Q182.4 117.0 182.6 117.1L182.6 117.1L183.4 117.3Q183.7 117.4 184.1 117.5Q184.5 117.7 184.9 117.9Q185.2 118.1 185.5 118.5Q185.7 118.9 185.7 119.5L185.7 119.5Q185.7 120.1 185.3 120.7Q185.0 121.2 184.4 121.5Q183.7 121.8 182.8 121.8L182.8 121.8Q181.9 121.8 181.3 121.5Q180.7 121.2 180.3 120.7Q180.0 120.3 179.9 119.6L179.9 119.6L180.9 119.6Q181.0 120.0 181.2 120.3Q181.5 120.6 181.9 120.8Q182.3 120.9 182.8 120.9L182.8 120.9Q183.3 120.9 183.8 120.7Q184.2 120.6 184.5 120.2Q184.7 119.9 184.7 119.5L184.7 119.5Q184.7 119.1 184.5 118.8Q184.3 118.6 183.9 118.4Q183.6 118.3 183.2 118.1L183.2 118.1L182.2 117.9Q181.2 117.6 180.7 117.1Q180.1 116.6 180.1 115.8L180.1 115.8Q180.1 115.1 180.5 114.6Q180.9 114.1 181.5 113.8Q182.1 113.5 182.9 113.5L182.9 113.5Q183.6 113.5 184.2 113.8Q184.8 114.1 185.2 114.6Q185.6 115.1 185.6 115.7L185.6 115.7ZM189.9 121.8L189.9 121.8Q189.0 121.8 188.4 121.4Q187.8 121.0 187.5 120.3Q187.2 119.6 187.2 118.7L187.2 118.7Q187.2 117.8 187.5 117.1Q187.8 116.4 188.5 116.0Q189.1 115.6 189.9 115.6L189.9 115.6Q190.5 115.6 191.0 115.8Q191.5 116.0 191.8 116.5Q192.2 116.9 192.3 117.5L192.3 117.5L191.3 117.5Q191.2 117.0 190.9 116.7Q190.5 116.4 189.9 116.4L189.9 116.4Q189.4 116.4 188.9 116.7Q188.5 117.0 188.3 117.5Q188.1 118.0 188.1 118.7L188.1 118.7Q188.1 119.4 188.3 119.9Q188.5 120.4 188.9 120.7Q189.3 121.0 189.9 121.0L189.9 121.0Q190.3 121.0 190.5 120.8Q190.8 120.7 191.0 120.5Q191.2 120.2 191.3 119.9L191.3 119.9L192.3 119.9Q192.2 120.4 191.9 120.9Q191.6 121.3 191.1 121.5Q190.6 121.8 189.9 121.8ZM194.8 121.7L193.9 121.7L193.9 115.7L194.8 115.7L194.8 116.6L194.8 116.6Q195.0 116.1 195.4 115.8Q195.9 115.6 196.4 115.6L196.4 115.6Q196.5 115.6 196.7 115.6Q196.8 115.6 196.9 115.6L196.9 115.6L196.9 116.5Q196.8 116.5 196.7 116.5Q196.5 116.5 196.3 116.5L196.3 116.5Q195.9 116.5 195.6 116.6Q195.2 116.8 195.0 117.1Q194.8 117.5 194.8 117.9L194.8 117.9L194.8 121.7ZM199.2 121.7L198.3 121.7L198.3 115.7L199.2 115.7L199.2 121.7ZM198.8 114.7L198.8 114.7Q198.5 114.7 198.3 114.5Q198.1 114.3 198.1 114.0L198.1 114.0Q198.1 113.8 198.3 113.6Q198.5 113.4 198.8 113.4L198.8 113.4Q199.0 113.4 199.2 113.6Q199.4 113.8 199.4 114.0L199.4 114.0Q199.4 114.3 199.2 114.5Q199.0 114.7 198.8 114.7ZM202.1 123.9L201.2 123.9L201.2 115.7L202.1 115.7L202.1 116.6L202.2 116.6Q202.3 116.5 202.5 116.2Q202.7 116.0 203.0 115.8Q203.3 115.6 203.9 115.6L203.9 115.6Q204.7 115.6 205.3 116.0Q205.8 116.3 206.2 117.0Q206.5 117.7 206.5 118.7L206.5 118.7Q206.5 119.6 206.2 120.3Q205.8 121.0 205.3 121.4Q204.7 121.8 203.9 121.8L203.9 121.8Q203.4 121.8 203.0 121.6Q202.7 121.4 202.5 121.1Q202.3 120.9 202.2 120.7L202.2 120.7L202.1 120.7L202.1 123.9ZM202.1 118.7L202.1 118.7Q202.1 119.3 202.3 119.9Q202.5 120.4 202.9 120.7Q203.3 121.0 203.8 121.0L203.8 121.0Q204.4 121.0 204.8 120.6Q205.2 120.3 205.4 119.8Q205.6 119.3 205.6 118.7L205.6 118.7Q205.6 118.0 205.4 117.5Q205.2 117.0 204.8 116.7Q204.4 116.4 203.8 116.4L203.8 116.4Q203.3 116.4 202.9 116.7Q202.5 117.0 202.3 117.5Q202.1 118.0 202.1 118.7ZM207.7 115.7L210.8 115.7L210.8 116.4L207.7 116.4L207.7 115.7ZM208.6 120.2L208.6 114.2L209.5 114.2L209.5 119.9Q209.5 120.3 209.6 120.5Q209.8 120.7 209.9 120.8Q210.1 120.8 210.3 120.8L210.3 120.8Q210.5 120.8 210.6 120.8Q210.7 120.8 210.7 120.8L210.7 120.8L210.9 121.6Q210.8 121.7 210.7 121.7Q210.5 121.7 210.2 121.7L210.2 121.7Q209.8 121.7 209.5 121.6Q209.1 121.4 208.9 121.1Q208.6 120.7 208.6 120.2L208.6 120.2Z " clip-path="url(#satori_cp-id)" mask="url(#satori_om-id)"/><defs><clipPath id="satori_bc-id-1-0-0-1-2" clip-path="url(#satori_cp-id)"><path x="234" y="104" width="65" height="28" d="M240,104 h53 a6,6 0 0 1 6,6 v16 a6,6 0 0 1 -6,6 h-53 a6,6 0 0 1 -6,-6 v-16 a6,6 0 0 1 6,-6"/></clipPath></defs><mask id="satori_om-id-1-0-0-1-2"><rect x="235" y="105" width="63" height="26" fill="#fff" mask="url(#satori_om-id)"/><path width="65" height="28" fill="none" stroke="#000" stroke-width="2" d="M235.757,105.757 A6,6 0 0 1 240,104 h53 a6,6 0 0 1 6,6 v16 a6,6 0 0 1 -6,6 h-53 a6,6 0 0 1 -6,-6 v-16 A6,6 0 0 1 235.757,105.757"/></mask><path x="234" y="104" width="65" height="28" fill="#E4E4E718" d="M240,104 h53 a6,6 0 0 1 6,6 v16 a6,6 0 0 1 -6,6 h-53 a6,6 0 0 1 -6,-6 v-16 a6,6 0 0 1 6,-6" clip-path="url(#satori_cp-id)" mask="url(#satori_om-id)"/><path width="65" height="28" clip-path="url(#satori_bc-id-1-0-0-1-2)" fill="none" stroke="#E4E4E740" stroke-width="2" d="M235.757,105.757 A6,6 0 0 1 240,104 h53 a6,6 0 0 1 6,6 v16 a6,6 0 0 1 -6,6 h-53 a6,6 0 0 1 -6,-6 v-16 A6,6 0 0 1 235.757,105.757"/><path fill="#FFFFFF" d="M248.9 121.7L248.0 121.7L248.0 113.7L250.7 113.7Q251.6 113.7 252.2 114.0Q252.8 114.3 253.1 114.9Q253.4 115.5 253.4 116.2L253.4 116.2Q253.4 116.9 253.1 117.5Q252.8 118.1 252.2 118.4Q251.6 118.7 250.7 118.7L250.7 118.7L248.8 118.7L248.8 117.9L250.7 117.9Q251.3 117.9 251.7 117.7Q252.1 117.4 252.3 117.0Q252.4 116.7 252.4 116.2L252.4 116.2Q252.4 115.7 252.3 115.3Q252.1 114.9 251.7 114.7Q251.3 114.5 250.6 114.5L250.6 114.5L248.9 114.5L248.9 121.7ZM255.7 123.9L255.7 123.9Q255.5 123.9 255.3 123.9Q255.1 123.8 255.1 123.8L255.1 123.8L255.3 123.0Q255.6 123.1 255.9 123.0Q256.1 123.0 256.3 122.8Q256.5 122.6 256.7 122.2L256.7 122.2L256.9 121.7L254.7 115.7L255.7 115.7L257.3 120.4L257.4 120.4L259.0 115.7L260.0 115.7L257.5 122.5Q257.3 123.0 257.1 123.3Q256.8 123.6 256.5 123.8Q256.1 123.9 255.7 123.9ZM261.1 115.7L264.2 115.7L264.2 116.4L261.1 116.4L261.1 115.7ZM262.0 120.2L262.0 114.2L262.9 114.2L262.9 119.9Q262.9 120.3 263.0 120.5Q263.1 120.7 263.3 120.8Q263.5 120.8 263.7 120.8L263.7 120.8Q263.8 120.8 263.9 120.8Q264.0 120.8 264.1 120.8L264.1 120.8L264.3 121.6Q264.2 121.7 264.0 121.7Q263.8 121.7 263.6 121.7L263.6 121.7Q263.2 121.7 262.8 121.6Q262.4 121.4 262.2 121.1Q262.0 120.7 262.0 120.2L262.0 120.2ZM266.9 118.0L266.9 118.0L266.9 121.7L266.0 121.7L266.0 113.7L266.9 113.7L266.9 116.6L267.0 116.6Q267.2 116.1 267.6 115.9Q268.0 115.6 268.7 115.6L268.7 115.6Q269.4 115.6 269.8 115.8Q270.3 116.1 270.5 116.6Q270.8 117.1 270.8 117.8L270.8 117.8L270.8 121.7L269.9 121.7L269.9 117.9Q269.9 117.2 269.5 116.8Q269.1 116.4 268.5 116.4L268.5 116.4Q268.0 116.4 267.7 116.6Q267.3 116.8 267.1 117.2Q266.9 117.5 266.9 118.0ZM275.2 121.8L275.2 121.8Q274.4 121.8 273.8 121.4Q273.2 121.0 272.8 120.3Q272.5 119.6 272.5 118.7L272.5 118.7Q272.5 117.8 272.8 117.1Q273.2 116.4 273.8 116.0Q274.4 115.6 275.2 115.6L275.2 115.6Q276.0 115.6 276.6 116.0Q277.3 116.4 277.6 117.1Q277.9 117.8 277.9 118.7L277.9 118.7Q277.9 119.6 277.6 120.3Q277.3 121.0 276.6 121.4Q276.0 121.8 275.2 121.8ZM275.2 121.0L275.2 121.0Q275.8 121.0 276.2 120.6Q276.6 120.3 276.8 119.8Q277.0 119.3 277.0 118.7L277.0 118.7Q277.0 118.1 276.8 117.6Q276.6 117.0 276.2 116.7Q275.8 116.4 275.2 116.4L275.2 116.4Q274.6 116.4 274.2 116.7Q273.8 117.0 273.6 117.6Q273.4 118.1 273.4 118.7L273.4 118.7Q273.4 119.3 273.6 119.8Q273.8 120.3 274.2 120.6Q274.6 121.0 275.2 121.0ZM280.6 118.0L280.6 118.0L280.6 121.7L279.6 121.7L279.6 115.7L280.5 115.7L280.5 116.6L280.6 116.6Q280.8 116.1 281.3 115.9Q281.7 115.6 282.4 115.6L282.4 115.6Q283.0 115.6 283.4 115.8Q283.9 116.1 284.1 116.6Q284.4 117.1 284.4 117.8L284.4 117.8L284.4 121.7L283.5 121.7L283.5 117.9Q283.5 117.2 283.1 116.8Q282.7 116.4 282.1 116.4L282.1 116.4Q281.7 116.4 281.3 116.6Q281.0 116.8 280.8 117.2Q280.6 117.5 280.6 118.0Z " clip-path="url(#satori_cp-id)" mask="url(#satori_om-id)"/><defs><clipPath id="satori_bc-id-1-0-0-1-3" clip-path="url(#satori_cp-id)"><path x="307" y="104" width="42" height="28" d="M313,104 h30 a6,6 0 0 1 6,6 v16 a6,6 0 0 1 -6,6 h-30 a6,6 0 0 1 -6,-6 v-16 a6,6 0 0 1 6,-6"/></clipPath></defs><mask id="satori_om-id-1-0-0-1-3"><rect x="308" y="105" width="40" height="26" fill="#fff" mask="url(#satori_om-id)"/><path width="42" height="28" fill="none" stroke="#000" stroke-width="2" d="M308.757,105.757 A6,6 0 0 1 313,104 h30 a6,6 0 0 1 6,6 v16 a6,6 0 0 1 -6,6 h-30 a6,6 0 0 1 -6,-6 v-16 A6,6 0 0 1 308.757,105.757"/></mask><path x="307" y="104" width="42" height="28" fill="#E4E4E718" d="M313,104 h30 a6,6 0 0 1 6,6 v16 a6,6 0 0 1 -6,6 h-30 a6,6 0 0 1 -6,-6 v-16 a6,6 0 0 1 6,-6" clip-path="url(#satori_cp-id)" mask="url(#satori_om-id)"/><path width="42" height="28" clip-path="url(#satori_bc-id-1-0-0-1-3)" fill="none" stroke="#E4E4E740" stroke-width="2" d="M308.757,105.757 A6,6 0 0 1 313,104 h30 a6,6 0 0 1 6,6 v16 a6,6 0 0 1 -6,6 h-30 a6,6 0 0 1 -6,-6 v-16 A6,6 0 0 1 308.757,105.757"/><path fill="#FFFFFF" d="M327.4 116.2L326.4 116.2Q326.3 115.8 326.1 115.4Q325.9 115.1 325.6 114.9Q325.3 114.7 325.0 114.6Q324.6 114.5 324.2 114.5L324.2 114.5Q323.4 114.5 322.9 114.8Q322.3 115.2 321.9 115.9Q321.6 116.6 321.6 117.7L321.6 117.7Q321.6 118.7 321.9 119.4Q322.3 120.1 322.9 120.5Q323.5 120.9 324.2 120.9L324.2 120.9Q324.9 120.9 325.4 120.6Q326.0 120.3 326.3 119.7Q326.5 119.2 326.5 118.5L326.5 118.5L326.8 118.5L324.4 118.5L324.4 117.7L327.5 117.7L327.5 118.5Q327.5 119.5 327.1 120.2Q326.6 121.0 325.9 121.4Q325.2 121.8 324.2 121.8L324.2 121.8Q323.2 121.8 322.4 121.3Q321.6 120.8 321.1 119.8Q320.7 118.9 320.7 117.7L320.7 117.7Q320.7 116.7 320.9 115.9Q321.2 115.2 321.6 114.7Q322.1 114.1 322.7 113.8Q323.4 113.5 324.2 113.5L324.2 113.5Q324.8 113.5 325.3 113.7Q325.9 113.9 326.3 114.3Q326.8 114.6 327.0 115.1Q327.3 115.6 327.4 116.2L327.4 116.2ZM331.8 121.8L331.8 121.8Q330.9 121.8 330.3 121.4Q329.7 121.0 329.4 120.3Q329.0 119.6 329.0 118.7L329.0 118.7Q329.0 117.8 329.4 117.1Q329.7 116.4 330.3 116.0Q330.9 115.6 331.8 115.6L331.8 115.6Q332.6 115.6 333.2 116.0Q333.8 116.4 334.1 117.1Q334.5 117.8 334.5 118.7L334.5 118.7Q334.5 119.6 334.1 120.3Q333.8 121.0 333.2 121.4Q332.6 121.8 331.8 121.8ZM331.8 121.0L331.8 121.0Q332.4 121.0 332.8 120.6Q333.2 120.3 333.4 119.8Q333.6 119.3 333.6 118.7L333.6 118.7Q333.6 118.1 333.4 117.6Q333.2 117.0 332.8 116.7Q332.4 116.4 331.8 116.4L331.8 116.4Q331.1 116.4 330.7 116.7Q330.3 117.0 330.1 117.6Q330.0 118.1 330.0 118.7L330.0 118.7Q330.0 119.3 330.1 119.8Q330.3 120.3 330.7 120.6Q331.1 121.0 331.8 121.0Z " clip-path="url(#satori_cp-id)" mask="url(#satori_om-id)"/><mask id="satori_om-id-1-1"><rect x="416" y="63" width="354" height="104" fill="#fff" mask="url(#satori_om-id)"/></mask><defs><clipPath id="satori_bc-id-1-1-0" clip-path="url(#satori_cp-id)"><path x="416" y="63" width="354" height="84" d="M428,63 h330 a12,12 0 0 1 12,12 v60 a12,12 0 0 1 -12,12 h-330 a12,12 0 0 1 -12,-12 v-60 a12,12 0 0 1 12,-12"/></clipPath></defs><mask id="satori_om-id-1-1-0"><rect x="417" y="65" width="352" height="81" fill="#fff" mask="url(#satori_om-id)"/><path width="354" height="84" fill="none" stroke="#000" stroke-width="4" d="M419.515,66.515 A12,12 0 0 1 428,63 h330 A12,12 0 0 1 766.485,66.515"/><path width="354" height="84" fill="none" stroke="#000" stroke-width="2" d="M766.485,66.515 A12,12 0 0 1 770,75 v60 a12,12 0 0 1 -12,12 h-330 a12,12 0 0 1 -12,-12 v-60 A12,12 0 0 1 419.515,66.515"/></mask><path x="416" y="63" width="354" height="84" fill="#1F1F1FEE" d="M428,63 h330 a12,12 0 0 1 12,12 v60 a12,12 0 0 1 -12,12 h-330 a12,12 0 0 1 -12,-12 v-60 a12,12 0 0 1 12,-12" clip-path="url(#satori_cp-id)" mask="url(#satori_om-id)"/><path width="354" height="84" clip-path="url(#satori_bc-id-1-1-0)" fill="none" stroke="#A1A1AA" stroke-width="4" d="M419.515,66.515 A12,12 0 0 1 428,63 h330 A12,12 0 0 1 766.485,66.515"/><path width="354" height="84" clip-path="url(#satori_bc-id-1-1-0)" fill="none" stroke="#3F3F46" stroke-width="2" d="M766.485,66.515 A12,12 0 0 1 770,75 v60 a12,12 0 0 1 -12,12 h-330 a12,12 0 0 1 -12,-12 v-60 A12,12 0 0 1 419.515,66.515"/><mask id="satori_om-id-1-1-0-0"><rect x="433" y="79" width="320" height="11" fill="#fff" mask="url(#satori_om-id)"/></mask><path fill="#71717A" d="M434.6 87.7L433.8 87.7L433.8 81.2L437.7 81.2L437.7 81.9L434.6 81.9L434.6 84.1L437.4 84.1L437.4 84.8L434.6 84.8L434.6 87.7ZM440.9 87.7L440.1 87.7L440.1 81.2L442.3 81.2Q443.1 81.2 443.5 81.4Q444.0 81.7 444.3 82.1Q444.5 82.6 444.5 83.2L444.5 83.2Q444.5 83.8 444.3 84.2Q444.0 84.7 443.5 84.9Q443.1 85.2 442.3 85.2L442.3 85.2L440.5 85.2L440.5 84.4L442.3 84.4Q442.8 84.4 443.1 84.3Q443.4 84.1 443.6 83.9Q443.7 83.6 443.7 83.2L443.7 83.2Q443.7 82.8 443.6 82.5Q443.4 82.2 443.1 82.0Q442.8 81.9 442.3 81.9L442.3 81.9L440.9 81.9L440.9 87.7ZM442.3 84.8L443.2 84.8L444.8 87.7L443.8 87.7L442.3 84.8ZM449.0 82.2L447.1 87.7L446.3 87.7L448.7 81.2L449.5 81.2L451.9 87.7L451.1 87.7L449.1 82.2L449.0 82.2ZM447.4 85.9L447.4 85.2L450.8 85.2L450.8 85.9L447.4 85.9ZM453.9 87.7L453.9 81.2L454.9 81.2L457.1 86.6L457.2 86.6L459.4 81.2L460.3 81.2L460.3 87.7L459.6 87.7L459.6 82.7L459.5 82.7L457.5 87.7L456.8 87.7L454.7 82.7L454.7 82.7L454.7 87.7L453.9 87.7ZM466.9 87.7L462.9 87.7L462.9 81.2L466.9 81.2L466.9 81.9L463.7 81.9L463.7 84.1L466.7 84.1L466.7 84.8L463.7 84.8L463.7 87.0L466.9 87.0L466.9 87.7ZM471.3 87.7L470.5 87.7L468.7 81.2L469.5 81.2L470.9 86.5L470.9 86.5L472.3 81.2L473.2 81.2L474.6 86.5L474.7 86.5L476.0 81.2L476.9 81.2L475.1 87.7L474.2 87.7L472.8 82.5L472.7 82.5L471.3 87.7ZM484.1 84.4L484.1 84.4Q484.1 85.5 483.7 86.2Q483.3 87.0 482.7 87.4Q482.0 87.8 481.2 87.8L481.2 87.8Q480.3 87.8 479.7 87.4Q479.0 87.0 478.6 86.2Q478.3 85.5 478.3 84.4L478.3 84.4Q478.3 83.4 478.6 82.7Q479.0 81.9 479.7 81.5Q480.3 81.1 481.2 81.1L481.2 81.1Q482.0 81.1 482.7 81.5Q483.3 81.9 483.7 82.7Q484.1 83.4 484.1 84.4ZM483.3 84.4L483.3 84.4Q483.3 83.6 483.0 83.0Q482.7 82.4 482.2 82.1Q481.8 81.8 481.2 81.8L481.2 81.8Q480.6 81.8 480.1 82.1Q479.6 82.4 479.3 83.0Q479.0 83.6 479.0 84.4L479.0 84.4Q479.0 85.3 479.3 85.9Q479.6 86.5 480.1 86.8Q480.6 87.1 481.2 87.1L481.2 87.1Q481.8 87.1 482.2 86.8Q482.7 86.5 483.0 85.9Q483.3 85.3 483.3 84.4ZM487.2 87.7L486.4 87.7L486.4 81.2L488.6 81.2Q489.4 81.2 489.9 81.4Q490.3 81.7 490.6 82.1Q490.8 82.6 490.8 83.2L490.8 83.2Q490.8 83.8 490.6 84.2Q490.3 84.7 489.9 84.9Q489.4 85.2 488.6 85.2L488.6 85.2L486.8 85.2L486.8 84.4L488.6 84.4Q489.1 84.4 489.4 84.3Q489.7 84.1 489.9 83.9Q490.0 83.6 490.0 83.2L490.0 83.2Q490.0 82.8 489.9 82.5Q489.7 82.2 489.4 82.0Q489.1 81.9 488.6 81.9L488.6 81.9L487.2 81.9L487.2 87.7ZM488.6 84.8L489.5 84.8L491.1 87.7L490.2 87.7L488.6 84.8ZM493.9 87.7L493.1 87.7L493.1 81.2L493.9 81.2L493.9 84.4L494.0 84.4L496.9 81.2L498.0 81.2L495.2 84.1L498.0 87.7L497.0 87.7L494.7 84.7L493.9 85.6L493.9 87.7ZM504.3 82.8L503.6 82.8Q503.5 82.3 503.1 82.1Q502.7 81.8 502.1 81.8L502.1 81.8Q501.7 81.8 501.4 81.9Q501.0 82.1 500.8 82.3Q500.7 82.6 500.7 82.9L500.7 82.9Q500.7 83.1 500.8 83.3Q500.9 83.5 501.1 83.6Q501.3 83.8 501.5 83.8Q501.7 83.9 501.9 84.0L501.9 84.0L502.6 84.1Q502.9 84.2 503.2 84.3Q503.5 84.4 503.8 84.6Q504.1 84.8 504.2 85.2Q504.4 85.5 504.4 85.9L504.4 85.9Q504.4 86.5 504.2 86.9Q503.9 87.3 503.4 87.6Q502.8 87.8 502.1 87.8L502.1 87.8Q501.4 87.8 500.9 87.6Q500.3 87.4 500.1 87.0Q499.8 86.6 499.7 86.0L499.7 86.0L500.5 86.0Q500.6 86.4 500.8 86.6Q501.0 86.9 501.3 87.0Q501.7 87.1 502.1 87.1L502.1 87.1Q502.5 87.1 502.9 87.0Q503.2 86.8 503.5 86.6Q503.7 86.3 503.7 85.9L503.7 85.9Q503.7 85.6 503.5 85.4Q503.3 85.2 503.0 85.1Q502.7 84.9 502.4 84.8L502.4 84.8L501.6 84.6Q500.8 84.4 500.3 84.0Q499.9 83.6 499.9 82.9L499.9 82.9Q499.9 82.4 500.2 82.0Q500.5 81.5 501.0 81.3Q501.5 81.1 502.1 81.1L502.1 81.1Q502.8 81.1 503.3 81.3Q503.8 81.5 504.0 81.9Q504.3 82.3 504.3 82.8L504.3 82.8Z " clip-path="url(#satori_cp-id)" mask="url(#satori_om-id)"/><mask id="satori_om-id-1-1-0-1"><rect x="433" y="104" width="320" height="28" fill="#fff" mask="url(#satori_om-id)"/></mask><defs><clipPath id="satori_bc-id-1-1-0-1-0" clip-path="url(#satori_cp-id)"><path x="433" y="104" width="58" height="28" d="M439,104 h46 a6,6 0 0 1 6,6 v16 a6,6 0 0 1 -6,6 h-46 a6,6 0 0 1 -6,-6 v-16 a6,6 0 0 1 6,-6"/></clipPath></defs><mask id="satori_om-id-1-1-0-1-0"><rect x="434" y="105" width="56" height="26" fill="#fff" mask="url(#satori_om-id)"/><path width="58" height="28" fill="none" stroke="#000" stroke-width="2" d="M434.757,105.757 A6,6 0 0 1 439,104 h46 a6,6 0 0 1 6,6 v16 a6,6 0 0 1 -6,6 h-46 a6,6 0 0 1 -6,-6 v-16 A6,6 0 0 1 434.757,105.757"/></mask><path x="433" y="104" width="58" height="28" fill="#A1A1AA18" d="M439,104 h46 a6,6 0 0 1 6,6 v16 a6,6 0 0 1 -6,6 h-46 a6,6 0 0 1 -6,-6 v-16 a6,6 0 0 1 6,-6" clip-path="url(#satori_cp-id)" mask="url(#satori_om-id)"/><path width="58" height="28" clip-path="url(#satori_bc-id-1-1-0-1-0)" fill="none" stroke="#A1A1AA40" stroke-width="2" d="M434.757,105.757 A6,6 0 0 1 439,104 h46 a6,6 0 0 1 6,6 v16 a6,6 0 0 1 -6,6 h-46 a6,6 0 0 1 -6,-6 v-16 A6,6 0 0 1 434.757,105.757"/><path fill="#FFFFFF" d="M447.9 121.7L447.0 121.7L447.0 113.7L449.7 113.7Q450.6 113.7 451.2 114.0Q451.8 114.3 452.1 114.8Q452.4 115.4 452.4 116.1L452.4 116.1Q452.4 116.8 452.1 117.4Q451.8 117.9 451.2 118.2Q450.6 118.5 449.7 118.5L449.7 118.5L447.5 118.5L447.5 117.7L449.7 117.7Q450.3 117.7 450.7 117.5Q451.1 117.3 451.3 116.9Q451.4 116.6 451.4 116.1L451.4 116.1Q451.4 115.6 451.3 115.3Q451.1 114.9 450.7 114.7Q450.3 114.5 449.6 114.5L449.6 114.5L447.9 114.5L447.9 121.7ZM449.6 118.1L450.7 118.1L452.7 121.7L451.6 121.7L449.6 118.1ZM456.6 121.8L456.6 121.8Q455.8 121.8 455.1 121.4Q454.5 121.0 454.2 120.3Q453.8 119.6 453.8 118.7L453.8 118.7Q453.8 117.8 454.2 117.1Q454.5 116.4 455.1 116.0Q455.7 115.6 456.5 115.6L456.5 115.6Q457.0 115.6 457.5 115.7Q457.9 115.9 458.3 116.2Q458.7 116.6 458.9 117.2Q459.1 117.7 459.1 118.6L459.1 118.6L459.1 119.0L454.5 119.0L454.5 118.2L458.2 118.2Q458.2 117.7 458.0 117.3Q457.8 116.9 457.4 116.6Q457.0 116.4 456.5 116.4L456.5 116.4Q456.0 116.4 455.6 116.7Q455.2 116.9 455.0 117.4Q454.8 117.8 454.8 118.3L454.8 118.3L454.8 118.8Q454.8 119.5 455.0 120.0Q455.2 120.5 455.6 120.7Q456.1 121.0 456.6 121.0L456.6 121.0Q457.0 121.0 457.3 120.8Q457.6 120.7 457.8 120.5Q458.0 120.3 458.1 120.0L458.1 120.0L459.0 120.3Q458.9 120.7 458.5 121.1Q458.2 121.4 457.7 121.6Q457.2 121.8 456.6 121.8ZM462.6 121.8L462.6 121.8Q462.0 121.8 461.5 121.6Q461.1 121.4 460.8 121.0Q460.5 120.5 460.5 120.0L460.5 120.0Q460.5 119.4 460.7 119.1Q460.9 118.8 461.3 118.6Q461.6 118.4 462.0 118.3Q462.4 118.2 462.9 118.2L462.9 118.2Q463.4 118.1 463.8 118.1Q464.1 118.0 464.3 118.0Q464.4 117.9 464.4 117.6L464.4 117.6L464.4 117.6Q464.4 117.0 464.1 116.7Q463.8 116.4 463.1 116.4L463.1 116.4Q462.5 116.4 462.1 116.7Q461.7 117.0 461.6 117.3L461.6 117.3L460.7 117.0Q460.9 116.4 461.3 116.1Q461.7 115.8 462.2 115.7Q462.7 115.6 463.1 115.6L463.1 115.6Q463.4 115.6 463.8 115.6Q464.2 115.7 464.5 115.9Q464.9 116.1 465.1 116.6Q465.3 117.0 465.3 117.7L465.3 117.7L465.3 121.7L464.4 121.7L464.4 120.8L464.4 120.8Q464.3 121.0 464.1 121.3Q463.8 121.5 463.5 121.6Q463.1 121.8 462.6 121.8ZM462.7 121.0L462.7 121.0Q463.3 121.0 463.6 120.8Q464.0 120.5 464.2 120.2Q464.4 119.9 464.4 119.5L464.4 119.5L464.4 118.6Q464.4 118.7 464.2 118.8Q464.0 118.8 463.7 118.9Q463.4 118.9 463.2 118.9Q463.0 119.0 462.8 119.0L462.8 119.0Q462.5 119.0 462.1 119.1Q461.8 119.2 461.6 119.4Q461.5 119.6 461.5 120L461.5 120Q461.5 120.5 461.8 120.7Q462.2 121.0 462.7 121.0ZM469.8 121.8L469.8 121.8Q468.9 121.8 468.3 121.4Q467.7 121.0 467.4 120.3Q467.0 119.6 467.0 118.7L467.0 118.7Q467.0 117.8 467.4 117.1Q467.7 116.4 468.3 116.0Q468.9 115.6 469.7 115.6L469.7 115.6Q470.4 115.6 470.9 115.8Q471.4 116.0 471.7 116.5Q472.0 116.9 472.1 117.5L472.1 117.5L471.2 117.5Q471.1 117.0 470.7 116.7Q470.4 116.4 469.8 116.4L469.8 116.4Q469.2 116.4 468.8 116.7Q468.4 117.0 468.2 117.5Q468.0 118.0 468.0 118.7L468.0 118.7Q468.0 119.4 468.2 119.9Q468.4 120.4 468.8 120.7Q469.2 121.0 469.8 121.0L469.8 121.0Q470.1 121.0 470.4 120.8Q470.7 120.7 470.9 120.5Q471.1 120.2 471.2 119.9L471.2 119.9L472.1 119.9Q472.0 120.4 471.7 120.9Q471.4 121.3 470.9 121.5Q470.4 121.8 469.8 121.8ZM473.3 115.7L476.4 115.7L476.4 116.4L473.3 116.4L473.3 115.7ZM474.2 120.2L474.2 114.2L475.1 114.2L475.1 119.9Q475.1 120.3 475.2 120.5Q475.3 120.7 475.5 120.8Q475.7 120.8 475.9 120.8L475.9 120.8Q476.0 120.8 476.1 120.8Q476.2 120.8 476.3 120.8L476.3 120.8L476.5 121.6Q476.4 121.7 476.2 121.7Q476.1 121.7 475.8 121.7L475.8 121.7Q475.4 121.7 475.0 121.6Q474.7 121.4 474.4 121.1Q474.2 120.7 474.2 120.2L474.2 120.2Z " clip-path="url(#satori_cp-id)" mask="url(#satori_om-id)"/><defs><clipPath id="satori_bc-id-1-1-0-1-1" clip-path="url(#satori_cp-id)"><path x="499" y="104" width="65" height="28" d="M505,104 h53 a6,6 0 0 1 6,6 v16 a6,6 0 0 1 -6,6 h-53 a6,6 0 0 1 -6,-6 v-16 a6,6 0 0 1 6,-6"/></clipPath></defs><mask id="satori_om-id-1-1-0-1-1"><rect x="500" y="105" width="63" height="26" fill="#fff" mask="url(#satori_om-id)"/><path width="65" height="28" fill="none" stroke="#000" stroke-width="2" d="M500.757,105.757 A6,6 0 0 1 505,104 h53 a6,6 0 0 1 6,6 v16 a6,6 0 0 1 -6,6 h-53 a6,6 0 0 1 -6,-6 v-16 A6,6 0 0 1 500.757,105.757"/></mask><path x="499" y="104" width="65" height="28" fill="#A1A1AA18" d="M505,104 h53 a6,6 0 0 1 6,6 v16 a6,6 0 0 1 -6,6 h-53 a6,6 0 0 1 -6,-6 v-16 a6,6 0 0 1 6,-6" clip-path="url(#satori_cp-id)" mask="url(#satori_om-id)"/><path width="65" height="28" clip-path="url(#satori_bc-id-1-1-0-1-1)" fill="none" stroke="#A1A1AA40" stroke-width="2" d="M500.757,105.757 A6,6 0 0 1 505,104 h53 a6,6 0 0 1 6,6 v16 a6,6 0 0 1 -6,6 h-53 a6,6 0 0 1 -6,-6 v-16 A6,6 0 0 1 500.757,105.757"/><path fill="#FFFFFF" d="M518.4 113.7L519.3 113.7L519.3 121.7L518.4 121.7L514.0 115.4L513.9 115.4L513.9 121.7L513.0 121.7L513.0 113.7L513.9 113.7L518.3 120.0L518.4 120.0L518.4 113.7ZM523.9 121.8L523.9 121.8Q523.1 121.8 522.4 121.4Q521.8 121.0 521.5 120.3Q521.1 119.6 521.1 118.7L521.1 118.7Q521.1 117.8 521.5 117.1Q521.8 116.4 522.4 116.0Q523.0 115.6 523.8 115.6L523.8 115.6Q524.3 115.6 524.8 115.7Q525.2 115.9 525.6 116.2Q526.0 116.6 526.2 117.2Q526.4 117.7 526.4 118.6L526.4 118.6L526.4 119.0L521.8 119.0L521.8 118.2L525.5 118.2Q525.5 117.7 525.3 117.3Q525.1 116.9 524.7 116.6Q524.3 116.4 523.8 116.4L523.8 116.4Q523.3 116.4 522.9 116.7Q522.5 116.9 522.3 117.4Q522.1 117.8 522.1 118.3L522.1 118.3L522.1 118.8Q522.1 119.5 522.3 120.0Q522.5 120.5 523.0 120.7Q523.4 121.0 523.9 121.0L523.9 121.0Q524.3 121.0 524.6 120.8Q524.9 120.7 525.1 120.5Q525.3 120.3 525.4 120.0L525.4 120.0L526.3 120.3Q526.2 120.7 525.9 121.1Q525.5 121.4 525.0 121.6Q524.5 121.8 523.9 121.8ZM527.6 115.7L528.7 115.7L530.1 118.1L531.5 115.7L532.6 115.7L530.7 118.7L532.6 121.7L531.5 121.7L530.1 119.3L528.7 121.7L527.6 121.7L529.5 118.7L527.6 115.7ZM533.7 115.7L536.8 115.7L536.8 116.4L533.7 116.4L533.7 115.7ZM534.6 120.2L534.6 114.2L535.5 114.2L535.5 119.9Q535.5 120.3 535.7 120.5Q535.8 120.7 536.0 120.8Q536.1 120.8 536.3 120.8L536.3 120.8Q536.5 120.8 536.6 120.8Q536.7 120.8 536.7 120.8L536.7 120.8L536.9 121.6Q536.8 121.7 536.7 121.7Q536.5 121.7 536.2 121.7L536.2 121.7Q535.9 121.7 535.5 121.6Q535.1 121.4 534.9 121.1Q534.6 120.7 534.6 120.2L534.6 120.2ZM539.2 121.7L539.2 121.7Q538.9 121.7 538.7 121.5Q538.5 121.3 538.5 121.0L538.5 121.0Q538.5 120.7 538.7 120.5Q538.9 120.3 539.2 120.3L539.2 120.3Q539.5 120.3 539.7 120.5Q539.9 120.7 539.9 121.0L539.9 121.0Q539.9 121.2 539.8 121.4Q539.7 121.5 539.5 121.6Q539.4 121.7 539.2 121.7ZM541.8 122.1L541.8 115.7L542.8 115.7L542.8 122.1Q542.8 122.6 542.6 123.1Q542.4 123.5 542.0 123.7Q541.6 123.9 541.0 123.9L541.0 123.9Q541.0 123.9 541.0 123.9Q540.9 123.9 540.9 123.9L540.9 123.9L540.9 123.0Q540.9 123.0 540.9 123.0Q541.0 123.0 541.0 123.0L541.0 123.0Q541.5 123.0 541.6 122.8Q541.8 122.6 541.8 122.1L541.8 122.1ZM542.3 114.7L542.3 114.7Q542.0 114.7 541.8 114.5Q541.6 114.3 541.6 114.0L541.6 114.0Q541.6 113.8 541.8 113.6Q542.0 113.4 542.3 113.4L542.3 113.4Q542.6 113.4 542.8 113.6Q543.0 113.8 543.0 114.0L543.0 114.0Q543.0 114.3 542.8 114.5Q542.6 114.7 542.3 114.7ZM549.0 117L549.0 117L548.2 117.2Q548.1 117.0 547.9 116.8Q547.8 116.6 547.5 116.5Q547.3 116.4 546.9 116.4L546.9 116.4Q546.3 116.4 546.0 116.6Q545.6 116.9 545.6 117.3L545.6 117.3Q545.6 117.6 545.8 117.8Q546.1 118.0 546.6 118.1L546.6 118.1L547.5 118.4Q548.3 118.6 548.7 119.0Q549.1 119.4 549.1 120.0L549.1 120.0Q549.1 120.5 548.8 120.9Q548.5 121.3 548.0 121.5Q547.5 121.8 546.8 121.8L546.8 121.8Q545.9 121.8 545.2 121.4Q544.6 121.0 544.5 120.2L544.5 120.2L545.4 120Q545.5 120.5 545.8 120.7Q546.2 121.0 546.8 121.0L546.8 121.0Q547.4 121.0 547.8 120.7Q548.2 120.4 548.2 120.0L548.2 120.0Q548.2 119.7 547.9 119.5Q547.7 119.3 547.3 119.2L547.3 119.2L546.3 119.0Q545.4 118.8 545.1 118.3Q544.7 117.9 544.7 117.3L544.7 117.3Q544.7 116.8 545.0 116.4Q545.2 116.0 545.7 115.8Q546.2 115.6 546.9 115.6L546.9 115.6Q547.8 115.6 548.3 116.0Q548.8 116.4 549.0 117Z " clip-path="url(#satori_cp-id)" mask="url(#satori_om-id)"/><defs><clipPath id="satori_bc-id-1-1-0-1-2" clip-path="url(#satori_cp-id)"><path x="572" y="104" width="68" height="28" d="M578,104 h56 a6,6 0 0 1 6,6 v16 a6,6 0 0 1 -6,6 h-56 a6,6 0 0 1 -6,-6 v-16 a6,6 0 0 1 6,-6"/></clipPath></defs><mask id="satori_om-id-1-1-0-1-2"><rect x="573" y="105" width="66" height="26" fill="#fff" mask="url(#satori_om-id)"/><path width="68" height="28" fill="none" stroke="#000" stroke-width="2" d="M573.757,105.757 A6,6 0 0 1 578,104 h56 a6,6 0 0 1 6,6 v16 a6,6 0 0 1 -6,6 h-56 a6,6 0 0 1 -6,-6 v-16 A6,6 0 0 1 573.757,105.757"/></mask><path x="572" y="104" width="68" height="28" fill="#A1A1AA18" d="M578,104 h56 a6,6 0 0 1 6,6 v16 a6,6 0 0 1 -6,6 h-56 a6,6 0 0 1 -6,-6 v-16 a6,6 0 0 1 6,-6" clip-path="url(#satori_cp-id)" mask="url(#satori_om-id)"/><path width="68" height="28" clip-path="url(#satori_bc-id-1-1-0-1-2)" fill="none" stroke="#A1A1AA40" stroke-width="2" d="M573.757,105.757 A6,6 0 0 1 578,104 h56 a6,6 0 0 1 6,6 v16 a6,6 0 0 1 -6,6 h-56 a6,6 0 0 1 -6,-6 v-16 A6,6 0 0 1 573.757,105.757"/><path fill="#FFFFFF" d="M591.4 113.7L592.3 113.7L592.3 121.7L591.4 121.7L587.0 115.4L586.9 115.4L586.9 121.7L586.0 121.7L586.0 113.7L586.9 113.7L591.3 120.0L591.4 120.0L591.4 113.7ZM596.9 121.8L596.9 121.8Q596.0 121.8 595.4 121.4Q594.8 121.0 594.5 120.3Q594.1 119.6 594.1 118.7L594.1 118.7Q594.1 117.8 594.5 117.1Q594.8 116.4 595.4 116.0Q596.0 115.6 596.9 115.6L596.9 115.6Q597.7 115.6 598.3 116.0Q598.9 116.4 599.2 117.1Q599.6 117.8 599.6 118.7L599.6 118.7Q599.6 119.6 599.2 120.3Q598.9 121.0 598.3 121.4Q597.7 121.8 596.9 121.8ZM596.9 121.0L596.9 121.0Q597.5 121.0 597.9 120.6Q598.3 120.3 598.5 119.8Q598.7 119.3 598.7 118.7L598.7 118.7Q598.7 118.1 598.5 117.6Q598.3 117.0 597.9 116.7Q597.5 116.4 596.9 116.4L596.9 116.4Q596.2 116.4 595.8 116.7Q595.4 117.0 595.3 117.6Q595.1 118.1 595.1 118.7L595.1 118.7Q595.1 119.3 595.3 119.8Q595.4 120.3 595.8 120.6Q596.2 121.0 596.9 121.0ZM603.6 121.8L603.6 121.8Q602.8 121.8 602.2 121.4Q601.7 121.0 601.3 120.3Q601.0 119.6 601.0 118.7L601.0 118.7Q601.0 117.7 601.3 117.0Q601.7 116.3 602.2 116.0Q602.8 115.6 603.6 115.6L603.6 115.6Q604.2 115.6 604.5 115.8Q604.8 116.0 605.0 116.2Q605.2 116.5 605.3 116.6L605.3 116.6L605.4 116.6L605.4 113.7L606.3 113.7L606.3 121.7L605.4 121.7L605.4 120.7L605.3 120.7Q605.2 120.9 605.0 121.1Q604.8 121.4 604.5 121.6Q604.1 121.8 603.6 121.8ZM603.7 121.0L603.7 121.0Q604.2 121.0 604.6 120.7Q605.0 120.4 605.2 119.9Q605.4 119.3 605.4 118.7L605.4 118.7Q605.4 118.0 605.2 117.5Q605.0 117.0 604.6 116.7Q604.2 116.4 603.7 116.4L603.7 116.4Q603.1 116.4 602.7 116.7Q602.3 117.0 602.1 117.5Q601.9 118.0 601.9 118.7L601.9 118.7Q601.9 119.3 602.1 119.8Q602.3 120.3 602.7 120.6Q603.1 121.0 603.7 121.0ZM610.9 121.8L610.9 121.8Q610.1 121.8 609.4 121.4Q608.8 121.0 608.5 120.3Q608.1 119.6 608.1 118.7L608.1 118.7Q608.1 117.8 608.5 117.1Q608.8 116.4 609.4 116.0Q610.0 115.6 610.8 115.6L610.8 115.6Q611.3 115.6 611.8 115.7Q612.2 115.9 612.6 116.2Q613.0 116.6 613.2 117.2Q613.4 117.7 613.4 118.6L613.4 118.6L613.4 119.0L608.8 119.0L608.8 118.2L612.5 118.2Q612.5 117.7 612.3 117.3Q612.1 116.9 611.7 116.6Q611.3 116.4 610.8 116.4L610.8 116.4Q610.3 116.4 609.9 116.7Q609.5 116.9 609.3 117.4Q609.1 117.8 609.1 118.3L609.1 118.3L609.1 118.8Q609.1 119.5 609.3 120.0Q609.5 120.5 610.0 120.7Q610.4 121.0 610.9 121.0L610.9 121.0Q611.3 121.0 611.6 120.8Q611.9 120.7 612.1 120.5Q612.3 120.3 612.4 120.0L612.4 120.0L613.3 120.3Q613.2 120.7 612.8 121.1Q612.5 121.4 612.0 121.6Q611.5 121.8 610.9 121.8ZM615.8 121.7L615.8 121.7Q615.5 121.7 615.3 121.5Q615.1 121.3 615.1 121.0L615.1 121.0Q615.1 120.7 615.3 120.5Q615.5 120.3 615.8 120.3L615.8 120.3Q616.1 120.3 616.3 120.5Q616.5 120.7 616.5 121.0L616.5 121.0Q616.5 121.2 616.4 121.4Q616.3 121.5 616.1 121.6Q616.0 121.7 615.8 121.7ZM618.5 122.1L618.5 115.7L619.4 115.7L619.4 122.1Q619.4 122.6 619.2 123.1Q619.0 123.5 618.6 123.7Q618.2 123.9 617.7 123.9L617.7 123.9Q617.6 123.9 617.6 123.9Q617.5 123.9 617.5 123.9L617.5 123.9L617.5 123.0Q617.5 123.0 617.6 123.0Q617.6 123.0 617.6 123.0L617.6 123.0Q618.1 123.0 618.3 122.8Q618.5 122.6 618.5 122.1L618.5 122.1ZM618.9 114.7L618.9 114.7Q618.6 114.7 618.4 114.5Q618.2 114.3 618.2 114.0L618.2 114.0Q618.2 113.8 618.4 113.6Q618.6 113.4 618.9 113.4L618.9 113.4Q619.2 113.4 619.4 113.6Q619.6 113.8 619.6 114.0L619.6 114.0Q619.6 114.3 619.4 114.5Q619.2 114.7 618.9 114.7ZM625.6 117L625.6 117L624.8 117.2Q624.7 117.0 624.6 116.8Q624.4 116.6 624.1 116.5Q623.9 116.4 623.5 116.4L623.5 116.4Q622.9 116.4 622.6 116.6Q622.2 116.9 622.2 117.3L622.2 117.3Q622.2 117.6 622.5 117.8Q622.7 118.0 623.2 118.1L623.2 118.1L624.1 118.4Q624.9 118.6 625.3 119.0Q625.7 119.4 625.7 120.0L625.7 120.0Q625.7 120.5 625.4 120.9Q625.1 121.3 624.6 121.5Q624.1 121.8 623.4 121.8L623.4 121.8Q622.5 121.8 621.9 121.4Q621.3 121.0 621.1 120.2L621.1 120.2L622.0 120Q622.1 120.5 622.4 120.7Q622.8 121.0 623.4 121.0L623.4 121.0Q624.0 121.0 624.4 120.7Q624.8 120.4 624.8 120.0L624.8 120.0Q624.8 119.7 624.5 119.5Q624.3 119.3 623.9 119.2L623.9 119.2L622.9 119.0Q622.1 118.8 621.7 118.3Q621.3 117.9 621.3 117.3L621.3 117.3Q621.3 116.8 621.6 116.4Q621.9 116.0 622.4 115.8Q622.9 115.6 623.5 115.6L623.5 115.6Q624.4 115.6 624.9 116.0Q625.4 116.4 625.6 117Z " clip-path="url(#satori_cp-id)" mask="url(#satori_om-id)"/><defs><clipPath id="satori_bc-id-1-1-0-1-3" clip-path="url(#satori_cp-id)"><path x="648" y="104" width="95" height="28" d="M654,104 h83 a6,6 0 0 1 6,6 v16 a6,6 0 0 1 -6,6 h-83 a6,6 0 0 1 -6,-6 v-16 a6,6 0 0 1 6,-6"/></clipPath></defs><mask id="satori_om-id-1-1-0-1-3"><rect x="649" y="105" width="93" height="26" fill="#fff" mask="url(#satori_om-id)"/><path width="95" height="28" fill="none" stroke="#000" stroke-width="2" d="M649.757,105.757 A6,6 0 0 1 654,104 h83 a6,6 0 0 1 6,6 v16 a6,6 0 0 1 -6,6 h-83 a6,6 0 0 1 -6,-6 v-16 A6,6 0 0 1 649.757,105.757"/></mask><path x="648" y="104" width="95" height="28" fill="#A1A1AA18" d="M654,104 h83 a6,6 0 0 1 6,6 v16 a6,6 0 0 1 -6,6 h-83 a6,6 0 0 1 -6,-6 v-16 a6,6 0 0 1 6,-6" clip-path="url(#satori_cp-id)" mask="url(#satori_om-id)"/><path width="95" height="28" clip-path="url(#satori_bc-id-1-1-0-1-3)" fill="none" stroke="#A1A1AA40" stroke-width="2" d="M649.757,105.757 A6,6 0 0 1 654,104 h83 a6,6 0 0 1 6,6 v16 a6,6 0 0 1 -6,6 h-83 a6,6 0 0 1 -6,-6 v-16 A6,6 0 0 1 649.757,105.757"/><path fill="#FFFFFF" d="M664.0 114.5L661.5 114.5L661.5 113.7L667.5 113.7L667.5 114.5L665.0 114.5L665.0 121.7L664.0 121.7L664.0 114.5ZM670.2 121.8L670.2 121.8Q669.6 121.8 669.1 121.6Q668.7 121.4 668.4 121.0Q668.1 120.5 668.1 120.0L668.1 120.0Q668.1 119.4 668.3 119.1Q668.5 118.8 668.9 118.6Q669.2 118.4 669.6 118.3Q670.0 118.2 670.4 118.2L670.4 118.2Q671.0 118.1 671.3 118.1Q671.7 118.0 671.8 118.0Q672.0 117.9 672.0 117.6L672.0 117.6L672.0 117.6Q672.0 117.0 671.7 116.7Q671.4 116.4 670.7 116.4L670.7 116.4Q670.1 116.4 669.7 116.7Q669.3 117.0 669.2 117.3L669.2 117.3L668.3 117.0Q668.5 116.4 668.9 116.1Q669.3 115.8 669.8 115.7Q670.2 115.6 670.7 115.6L670.7 115.6Q671.0 115.6 671.4 115.6Q671.7 115.7 672.1 115.9Q672.4 116.1 672.7 116.6Q672.9 117.0 672.9 117.7L672.9 117.7L672.9 121.7L672.0 121.7L672.0 120.8L671.9 120.8Q671.8 121.0 671.6 121.3Q671.4 121.5 671.0 121.6Q670.7 121.8 670.2 121.8ZM670.3 121.0L670.3 121.0Q670.8 121.0 671.2 120.8Q671.6 120.5 671.8 120.2Q672.0 119.9 672.0 119.5L672.0 119.5L672.0 118.6Q671.9 118.7 671.7 118.8Q671.5 118.8 671.3 118.9Q671.0 118.9 670.8 118.9Q670.5 119.0 670.4 119.0L670.4 119.0Q670.0 119.0 669.7 119.1Q669.4 119.2 669.2 119.4Q669.0 119.6 669.0 120L669.0 120Q669.0 120.5 669.4 120.7Q669.7 121.0 670.3 121.0ZM675.8 121.7L674.9 121.7L674.9 115.7L675.8 115.7L675.8 121.7ZM675.4 114.7L675.4 114.7Q675.1 114.7 674.9 114.5Q674.7 114.3 674.7 114.0L674.7 114.0Q674.7 113.8 674.9 113.6Q675.1 113.4 675.4 113.4L675.4 113.4Q675.6 113.4 675.8 113.6Q676.0 113.8 676.0 114.0L676.0 114.0Q676.0 114.3 675.8 114.5Q675.6 114.7 675.4 114.7ZM677.8 113.7L678.7 113.7L678.7 121.7L677.8 121.7L677.8 113.7ZM683.0 121.7L682.1 121.7L680.2 115.7L681.2 115.7L682.5 120.3L682.6 120.3L683.9 115.7L684.8 115.7L686.1 120.2L686.2 120.2L687.5 115.7L688.4 115.7L686.6 121.7L685.7 121.7L684.4 117.0L684.3 117.0L683.0 121.7ZM690.9 121.7L690.0 121.7L690.0 115.7L690.9 115.7L690.9 121.7ZM690.4 114.7L690.4 114.7Q690.2 114.7 690.0 114.5Q689.8 114.3 689.8 114.0L689.8 114.0Q689.8 113.8 690.0 113.6Q690.2 113.4 690.4 113.4L690.4 113.4Q690.7 113.4 690.9 113.6Q691.1 113.8 691.1 114.0L691.1 114.0Q691.1 114.3 690.9 114.5Q690.7 114.7 690.4 114.7ZM693.8 118.0L693.8 118.0L693.8 121.7L692.9 121.7L692.9 115.7L693.8 115.7L693.8 116.6L693.8 116.6Q694.0 116.1 694.5 115.9Q694.9 115.6 695.6 115.6L695.6 115.6Q696.2 115.6 696.6 115.8Q697.1 116.1 697.4 116.6Q697.6 117.1 697.6 117.8L697.6 117.8L697.6 121.7L696.7 121.7L696.7 117.9Q696.7 117.2 696.3 116.8Q696.0 116.4 695.3 116.4L695.3 116.4Q694.9 116.4 694.5 116.6Q694.2 116.8 694.0 117.2Q693.8 117.5 693.8 118.0ZM701.9 121.8L701.9 121.8Q701.1 121.8 700.5 121.4Q700.0 121.0 699.6 120.3Q699.3 119.6 699.3 118.7L699.3 118.7Q699.3 117.7 699.6 117.0Q700.0 116.3 700.5 116.0Q701.1 115.6 701.9 115.6L701.9 115.6Q702.5 115.6 702.8 115.8Q703.2 116.0 703.3 116.2Q703.5 116.5 703.6 116.6L703.6 116.6L703.7 116.6L703.7 113.7L704.6 113.7L704.6 121.7L703.7 121.7L703.7 120.7L703.6 120.7Q703.5 120.9 703.3 121.1Q703.1 121.4 702.8 121.6Q702.4 121.8 701.9 121.8ZM702.0 121.0L702.0 121.0Q702.5 121.0 702.9 120.7Q703.3 120.4 703.5 119.9Q703.7 119.3 703.7 118.7L703.7 118.7Q703.7 118.0 703.5 117.5Q703.3 117.0 702.9 116.7Q702.6 116.4 702.0 116.4L702.0 116.4Q701.4 116.4 701.0 116.7Q700.6 117.0 700.4 117.5Q700.2 118.0 700.2 118.7L700.2 118.7Q700.2 119.3 700.4 119.8Q700.6 120.3 701.0 120.6Q701.4 121.0 702.0 121.0ZM713.3 116.2L713.3 116.2L712.3 116.2Q712.2 115.7 712.0 115.4Q711.8 115.1 711.5 114.9Q711.2 114.7 710.8 114.6Q710.5 114.5 710.1 114.5L710.1 114.5Q709.3 114.5 708.8 114.8Q708.2 115.2 707.8 115.9Q707.5 116.6 707.5 117.7L707.5 117.7Q707.5 118.7 707.8 119.4Q708.2 120.1 708.8 120.5Q709.3 120.9 710.1 120.9L710.1 120.9Q710.5 120.9 710.8 120.8Q711.2 120.6 711.5 120.4Q711.8 120.2 712.0 119.9Q712.2 119.6 712.3 119.2L712.3 119.2L713.3 119.2Q713.2 119.8 712.9 120.3Q712.6 120.7 712.2 121.1Q711.7 121.4 711.2 121.6Q710.7 121.8 710.1 121.8L710.1 121.8Q709.0 121.8 708.3 121.3Q707.5 120.8 707.0 119.8Q706.5 118.9 706.5 117.7L706.5 117.7Q706.5 116.4 707.0 115.5Q707.5 114.5 708.3 114.0Q709.0 113.5 710.1 113.5L710.1 113.5Q710.7 113.5 711.2 113.7Q711.7 113.9 712.2 114.2Q712.6 114.6 712.9 115.1Q713.2 115.5 713.3 116.2ZM720.5 115.7L719.5 115.7Q719.5 115.1 719.0 114.7Q718.5 114.4 717.7 114.4L717.7 114.4Q717.2 114.4 716.8 114.6Q716.4 114.8 716.2 115.1Q716.0 115.4 716.0 115.7L716.0 115.7Q716.0 116.1 716.1 116.3Q716.3 116.5 716.5 116.7Q716.8 116.8 717.0 116.9Q717.3 117.0 717.5 117.1L717.5 117.1L718.3 117.3Q718.6 117.4 719.0 117.5Q719.4 117.7 719.8 117.9Q720.1 118.1 720.3 118.5Q720.6 118.9 720.6 119.5L720.6 119.5Q720.6 120.1 720.2 120.7Q719.9 121.2 719.3 121.5Q718.6 121.8 717.7 121.8L717.7 121.8Q716.8 121.8 716.2 121.5Q715.6 121.2 715.2 120.7Q714.9 120.3 714.8 119.6L714.8 119.6L715.8 119.6Q715.8 120.0 716.1 120.3Q716.4 120.6 716.8 120.8Q717.2 120.9 717.7 120.9L717.7 120.9Q718.2 120.9 718.7 120.7Q719.1 120.6 719.4 120.2Q719.6 119.9 719.6 119.5L719.6 119.5Q719.6 119.1 719.4 118.8Q719.2 118.6 718.8 118.4Q718.5 118.3 718.0 118.1L718.0 118.1L717.1 117.9Q716.1 117.6 715.6 117.1Q715.0 116.6 715.0 115.8L715.0 115.8Q715.0 115.1 715.4 114.6Q715.8 114.1 716.4 113.8Q717.0 113.5 717.8 113.5L717.8 113.5Q718.5 113.5 719.1 113.8Q719.7 114.1 720.1 114.6Q720.4 115.1 720.5 115.7L720.5 115.7ZM727.8 115.7L726.8 115.7Q726.8 115.1 726.3 114.7Q725.8 114.4 725.0 114.4L725.0 114.4Q724.5 114.4 724.1 114.6Q723.7 114.8 723.5 115.1Q723.3 115.4 723.3 115.7L723.3 115.7Q723.3 116.1 723.4 116.3Q723.6 116.5 723.8 116.7Q724.1 116.8 724.3 116.9Q724.6 117.0 724.8 117.1L724.8 117.1L725.6 117.3Q726.0 117.4 726.3 117.5Q726.7 117.7 727.1 117.9Q727.4 118.1 727.7 118.5Q727.9 118.9 727.9 119.5L727.9 119.5Q727.9 120.1 727.6 120.7Q727.2 121.2 726.6 121.5Q725.9 121.8 725.0 121.8L725.0 121.8Q724.1 121.8 723.5 121.5Q722.9 121.2 722.5 120.7Q722.2 120.3 722.1 119.6L722.1 119.6L723.1 119.6Q723.2 120.0 723.4 120.3Q723.7 120.6 724.1 120.8Q724.5 120.9 725.0 120.9L725.0 120.9Q725.6 120.9 726.0 120.7Q726.4 120.6 726.7 120.2Q727.0 119.9 727.0 119.5L727.0 119.5Q727.0 119.1 726.7 118.8Q726.5 118.6 726.1 118.4Q725.8 118.3 725.4 118.1L725.4 118.1L724.4 117.9Q723.4 117.6 722.9 117.1Q722.3 116.6 722.3 115.8L722.3 115.8Q722.3 115.1 722.7 114.6Q723.1 114.1 723.7 113.8Q724.3 113.5 725.1 113.5L725.1 113.5Q725.9 113.5 726.5 113.8Q727.1 114.1 727.4 114.6Q727.8 115.1 727.8 115.7L727.8 115.7Z " clip-path="url(#satori_cp-id)" mask="url(#satori_om-id)"/></svg>